<?xml version="1.0" encoding="utf-8"?>
<!-- Generator: Adobe Illustrator 19.0.0, SVG Export Plug-In . SVG Version: 6.00 Build 0)  -->
<svg version="1.1" id="Capa_1" xmlns="http://www.w3.org/2000/svg" xmlns:xlink="http://www.w3.org/1999/xlink" x="0px" y="0px"
	 viewBox="-583 345 112 112" style="enable-background:new -583 345 112 112;" xml:space="preserve">
<style type="text/css">
	.st0{fill:#79C3AA;}
</style>
<g id="Group_214" transform="translate(256 90)">
	<path id="Path_37" class="st0" d="M-813.3,326.3c0.3,0.5,1,0.6,1.4,0.6c0.3,0,19.4,1.6,27.1,11.3c0.6,0.8,1.9,1,2.9,0.3
		c0.3-0.3,0.5-0.3,0.6-0.5c4.1-5.1,11.3-7.9,16.5-9.4c1-0.3,2.1-0.5,3.2-0.8c2.5-0.5,5.1-1,7.6-1.1c1.1,0,1.9-1,1.7-2.1
		c0-1.1-1-1.9-2.1-1.7l0,0c-2.7,0.3-5.4,0.6-8.1,1.3c-1.1,0.2-2.2,0.5-3.3,1c-7.3,2.1-13,5.1-16.8,8.7l-0.3,0.3l-0.5-0.3
		c-5.2-5.1-12.7-7.8-18.3-9l-1.1-0.3l0.6-0.8c4.8-5.6,11.9-8.7,19.2-8.6c4.4,0,8.9,1.1,12.7,3.2c1,0.5,2.2,0.2,2.7-0.8
		c0.5-1,0.2-2.2-0.8-2.7c-1.7-1-3.7-1.9-5.7-2.4l-1.1-0.3l1-0.8c4-3,6.4-7.6,6.5-12.7c-0.5-8.6-7.5-15.4-16-15.6
		c-8.7,0-15.7,7-15.7,15.7c0,5.1,2.5,10,6.7,12.9l1,0.8l-1.1,0.3c-5.9,1.9-10.8,5.7-14.1,10.6l-0.3,0.3l-0.3-0.2
		c-2.5-0.3-4.3-0.5-4.3-0.5h-0.2c-1.1,0-1.9,0.8-1.9,1.7C-813.9,325.3-813.7,326-813.3,326.3z M-795.3,298.7
		c0-6.5,5.2-11.7,11.7-11.7c6.5,0,11.7,5.2,11.7,11.7s-5.2,11.7-11.7,11.7C-789.9,310.4-795.2,305.2-795.3,298.7z"/>
</g>
</svg>
