<?xml version="1.0" encoding="utf-8"?>
<!-- Generator: Adobe Illustrator 19.0.0, SVG Export Plug-In . SVG Version: 6.00 Build 0)  -->
<svg version="1.1" id="Capa_1" xmlns="http://www.w3.org/2000/svg" xmlns:xlink="http://www.w3.org/1999/xlink" x="0px" y="0px"
	 viewBox="-583 345 112 112" style="enable-background:new -583 345 112 112;" xml:space="preserve">
<style type="text/css">
	.st0{fill:#79C3AA;}
</style>
<g id="Group_195" transform="translate(220.314 1778.6)">
	<path id="Path_33" class="st0" d="M-762.5-1409.8c-3.9,0-6.9,3-7.1,6.9c0,0,0,0,0,0.1v44.7c0,3.9,3.2,6.9,7.1,7.1h3v5.7l5.4-2.8
		l5.4,2.8v-5.7h23.6v-58.7h-37.4L-762.5-1409.8L-762.5-1409.8z M-751-1349.3l-3-1.6l-3,1.6v-7.6h6.3
		C-750.9-1356.9-751-1349.3-751-1349.3z M-727.4-1353.4h-21.3v-3.6h17v-2.4h-30v2.4h2.2v3.6h-3c-2.7,0-4.7-2-4.7-4.7s2-4.7,4.6-4.7
		c0,0,0,0,0.1,0h35.2C-727.4-1362.8-727.4-1353.4-727.4-1353.4L-727.4-1353.4z M-762.5-1365.1c-1.8,0-3.4,0.7-4.7,1.8v-39.7
		c0-2.7,2-4.7,4.6-4.7c0,0,0,0,0.1,0h35.2v42.6H-762.5L-762.5-1365.1z"/>
	<path id="Path_34" class="st0" d="M-757.5-1398.1v14.6h22.5v-14.6H-757.5z M-737.3-1385.8h-17.8v-10.1h18L-737.3-1385.8
		L-737.3-1385.8z"/>
</g>
</svg>
