<?xml version="1.0" encoding="utf-8"?>
<!-- Generator: Adobe Illustrator 25.2.3, SVG Export Plug-In . SVG Version: 6.00 Build 0)  -->
<svg version="1.1" id="Capa_1" xmlns="http://www.w3.org/2000/svg" xmlns:xlink="http://www.w3.org/1999/xlink" x="0px" y="0px"
	 viewBox="0 0 112 112" style="enable-background:new 0 0 112 112;" xml:space="preserve">
<style type="text/css">
	.st0{fill:#79C3AA;}
</style>
<g>
	<path class="st0" d="M40.8,23.8c-3.9,0-6.9,3-7.1,6.9c0,0,0,0,0,0.1v44.7c0,3.9,3.2,6.9,7.1,7.1h3v5.7l5.4-2.8l5.4,2.8v-5.7h23.6
		V23.9L40.8,23.8z M75.9,80.2H54.6v-3.6h17v-2.4h-30v2.4h2.2v3.6h-3c-2.7,0-4.7-2-4.7-4.7s2-4.7,4.6-4.7c0,0,0,0,0.1,0H76L75.9,80.2
		z M46.3,76.7h6.3c-0.2,0-0.3,7.6-0.3,7.6l-3-1.6l-3,1.6V76.7z M36.1,70.3V30.6c0-2.7,2-4.7,4.6-4.7c0,0,0,0,0.1,0H76v42.6H40.8v0
		C39,68.5,37.4,69.2,36.1,70.3z"/>
	<path class="st0" d="M68.3,35.5H45.8v14.6h22.5V35.5z M48.2,47.8V37.7h18L66,47.8H48.2z"/>
</g>
</svg>
