<?xml version="1.0" encoding="utf-8"?>
<!-- Generator: Adobe Illustrator 25.2.3, SVG Export Plug-In . SVG Version: 6.00 Build 0)  -->
<svg version="1.1" id="Capa_1" xmlns="http://www.w3.org/2000/svg" xmlns:xlink="http://www.w3.org/1999/xlink" x="0px" y="0px"
	 viewBox="0 0 112 112" style="enable-background:new 0 0 112 112;" xml:space="preserve">
<style type="text/css">
	.st0{fill:#79C3AA;}
</style>
<path class="st0" d="M58.2,89.9h-4.4c-1.4,0-2.7-0.7-3.4-1.9c-0.2-0.4-1.4-2.3-2.4-4.1c-0.6-1.1-1.5-1.9-2.6-2.3l0,0
	c-1.1-0.5-2.3-0.5-3.5-0.2c-2,0.6-4.3,1.1-4.6,1.2c-1.3,0.3-2.8-0.1-3.7-1.1l-3.1-3.1c-1-1-1.4-2.4-1.1-3.7c0.1-0.4,0.7-2.6,1.2-4.6
	c0.3-1.2,0.3-2.4-0.2-3.5l0,0c-0.5-1.1-1.3-2-2.3-2.6c-1.9-1-3.9-2.3-4.1-2.4c-1.2-0.7-1.9-2-1.9-3.4v-4.4c0-1.4,0.7-2.7,1.9-3.4
	c0.4-0.2,2.3-1.4,4.1-2.4c1.1-0.6,1.9-1.5,2.3-2.6l0,0c0.5-1.1,0.5-2.3,0.2-3.5c-0.6-2-1.1-4.3-1.2-4.6c-0.3-1.3,0.1-2.8,1.1-3.7
	l3.1-3.1c1-1,2.4-1.4,3.7-1.1c0.4,0.1,2.6,0.7,4.6,1.2c1.2,0.3,2.4,0.3,3.5-0.2l0,0c1.1-0.5,2-1.3,2.6-2.3c1-1.9,2.3-3.9,2.4-4.1
	c0.7-1.2,2-1.9,3.4-1.9h4.4c1.4,0,2.7,0.7,3.4,1.9c0.2,0.4,1.4,2.3,2.4,4.1c0.6,1.1,1.5,1.9,2.6,2.3l0,0c1.1,0.5,2.3,0.5,3.5,0.2
	c2-0.6,4.3-1.1,4.6-1.2c1.3-0.3,2.8,0.1,3.7,1.1l3.1,3.1c1,1,1.4,2.4,1.1,3.7c-0.1,0.4-0.7,2.6-1.2,4.6c-0.3,1.2-0.3,2.4,0.2,3.5
	l0,0c0.5,1.1,1.3,2,2.3,2.6c1.9,1,3.9,2.3,4.1,2.4c1.2,0.7,1.9,2,1.9,3.4v4.4c0,1.4-0.7,2.7-1.9,3.4C87.6,61.8,85.7,63,84,64
	c-1.1,0.6-1.9,1.5-2.4,2.7l0,0c-0.4,1.1-0.5,2.3-0.2,3.4c0.6,2,1.2,4.4,1.2,4.6c0.3,1.3-0.1,2.8-1.1,3.7l-3.1,3.1
	c-1,1-2.4,1.4-3.7,1.1c-0.4-0.1-2.6-0.7-4.6-1.2c-1.2-0.3-2.4-0.3-3.5,0.2l0,0c-1.1,0.5-2,1.3-2.6,2.3c-1,1.9-2.3,3.9-2.4,4.1
	C60.9,89.2,59.6,89.9,58.2,89.9z M43.8,76.9l6.2,2.6l0.3,0.7c0.6,1.4,2.9,5.2,3.4,6c0,0.1,0.1,0.1,0.2,0.1l4.4,0
	c0.1,0,0.2,0,0.2-0.1c0.4-0.6,2.7-4.5,3.4-5.9l0.3-0.7l6.2-2.6l0.7,0.3c1.4,0.5,5.7,1.6,6.6,1.8c0.1,0,0.2,0,0.2-0.1l3.1-3.1
	c0.1-0.1,0.1-0.2,0.1-0.2c-0.2-0.7-1.3-5.1-1.8-6.6l-0.3-0.7l2.5-6.2l0.7-0.3c1.4-0.6,5.2-2.9,6-3.4c0.1,0,0.1-0.1,0.1-0.2l0-4.4
	c0-0.1,0-0.2-0.1-0.2l0,0c-0.6-0.4-4.5-2.7-5.9-3.4l-0.7-0.3l-2.6-6.2l0.3-0.7c0.5-1.4,1.6-5.7,1.8-6.6c0-0.1,0-0.2-0.1-0.2
	l-3.1-3.1C75.7,33,75.7,33,75.6,33c-0.7,0.2-5.1,1.3-6.6,1.8l-0.7,0.3l-6.2-2.5l-0.3-0.7c-0.6-1.4-2.9-5.2-3.4-6
	c0-0.1-0.1-0.1-0.2-0.1l-4.4,0c-0.1,0-0.2,0-0.2,0.1c-0.4,0.6-2.7,4.5-3.4,5.9l-0.3,0.7l-6.2,2.6l-0.7-0.3c-1.4-0.5-5.7-1.6-6.6-1.8
	c-0.1,0-0.2,0-0.2,0.1l-3.1,3.1c-0.1,0.1-0.1,0.2-0.1,0.2c0.2,0.7,1.3,5.1,1.8,6.6l0.3,0.7l-2.5,6.2l-0.7,0.3
	c-1.4,0.6-5.2,2.9-6,3.4c-0.1,0-0.1,0.1-0.1,0.2l0,4.4c0,0.1,0,0.2,0.1,0.2c0.6,0.4,4.5,2.7,5.9,3.4l0.7,0.3l2.6,6.2L34.9,69
	c-0.5,1.4-1.6,5.7-1.8,6.6c0,0.1,0,0.2,0.1,0.2l3.1,3.1c0.1,0.1,0.2,0.1,0.2,0.1c0.7-0.2,5.1-1.3,6.6-1.8L43.8,76.9z M56,71.8
	c-9,0-16.2-7.5-15.8-16.6c0.4-8.1,7-14.7,15.1-15.1C64.4,39.7,71.9,47,71.9,56l0,0C71.8,64.7,64.8,71.8,56,71.8z M56,43.9
	c-6.8,0-12.3,5.7-12.1,12.6c0.2,6.2,5.4,11.4,11.6,11.6c6.9,0.3,12.6-5.2,12.6-12.1l0,0C68.1,49.3,62.7,43.9,56,43.9z"/>
</svg>
