<?xml version="1.0" encoding="utf-8"?>
<!-- Generator: Adobe Illustrator 19.0.0, SVG Export Plug-In . SVG Version: 6.00 Build 0)  -->
<svg version="1.1" id="Capa_1" xmlns="http://www.w3.org/2000/svg" xmlns:xlink="http://www.w3.org/1999/xlink" x="0px" y="0px"
	 viewBox="-583 345 112 112" style="enable-background:new -583 345 112 112;" xml:space="preserve">
<style type="text/css">
	.st0{fill:#79C3AA;}
</style>
<g>
	<g id="Artboard_1">
		<g id="Group_198" transform="translate(-892.5 -561.5)">
			<g id="Group_196" transform="translate(397.387 1782.886)">
				<path id="Path_35" class="st0" d="M-4.6-835.3c-0.6-0.9-1.7-1.6-2.9-1.6c-1.1-0.1-2.1,0.3-2.9,1.1l0,0l-12.8,13
					c-1.6,1.6-1.6,3.8,0,5.3l0,0l12.5,12.5c0.7,0.6,1.7,1.1,2.7,1.1h0.1c1.1-0.1,2.1-0.6,2.9-1.4C2.2-813.9,2.2-826.5-4.6-835.3z
					 M-7.4-807.2c-0.1,0.1-0.3,0.1-0.4,0.1c-0.1,0-0.3,0-0.4-0.1l-12.4-12.5c-0.1-0.1-0.1-0.1-0.1-0.3c0-0.1,0-0.3,0.1-0.4
					l12.8-12.8c0.1-0.3,0.4-0.3,0.7-0.1c0,0,0.1,0,0.1,0.1C-1.3-825.7-1.3-814.9-7.4-807.2z"/>
				<path id="Path_36" class="st0" d="M-31.7-819.8c-0.1-0.1-0.1-0.4,0-0.7l0,0l0,0l15.4-15.4c0.7-0.7,1.1-1.8,1.1-2.9
					c0-1.1-0.4-2-1.4-2.7c-11.8-10.5-29.8-9.6-40.3,2.1c-10.5,11.8-9.6,29.8,2.1,40.3c4.4,4,9.9,6.4,15.9,7.2
					c8.1,1.1,16.2-1.6,22.1-7c1.6-1.4,1.8-3.8,0.4-5.3l0,0l-0.1-0.1L-31.7-819.8z M-18.7-801.4c-10.5,9.1-26.4,8.3-35.8-2.3
					s-8.3-26.4,2.3-35.8c3.8-3.4,8.7-5.5,13.7-6.1c1.1-0.1,2.1-0.1,3-0.1c6.3,0,12.2,2.3,16.8,6.4c0.1,0.1,0.1,0.3,0.1,0.4
					s0,0.3-0.1,0.4L-34.2-823c-1.6,1.4-1.6,3.7-0.1,5.2l0.1,0.1l0,0l15.3,15.3C-18.4-802.1-18.4-801.6-18.7-801.4L-18.7-801.4z"/>
			</g>
		</g>
	</g>
</g>
</svg>
