<?xml version="1.0" encoding="utf-8"?>
<!-- Generator: Adobe Illustrator 19.0.0, SVG Export Plug-In . SVG Version: 6.00 Build 0)  -->
<svg version="1.1" id="Capa_1" xmlns="http://www.w3.org/2000/svg" xmlns:xlink="http://www.w3.org/1999/xlink" x="0px" y="0px"
	 viewBox="-617.8 391.1 50 50" style="enable-background:new -617.8 391.1 50 50;" xml:space="preserve">
<style type="text/css">
	.st0{fill:#79C3AA;}
</style>
<g>
	<path class="st0" d="M-605.3,429.8c0.1,0,0.2,0,0.3,0l7.1-1.8c0.2,0,0.4-0.2,0.5-0.3l17.3-17.3c1.4-1.4,1.4-3.8,0-5.2l-1.8-1.8
		c-0.7-0.7-1.6-1.1-2.6-1.1c-1,0-1.9,0.4-2.6,1.1l-17.3,17.3c-0.1,0.1-0.2,0.3-0.3,0.5l-1.8,7.1c-0.1,0.4,0,0.8,0.3,1.1
		C-605.9,429.7-605.6,429.8-605.3,429.8z M-602,421.6l14-14l1.3,1.3l-14,14L-602,421.6z M-599.5,424.2l14-14l1.2,1.2l-13.9,14
		L-599.5,424.2z M-581.7,408.9l-1,1l-3.8-3.8l1-1c0.5-0.5,1.5-0.5,2,0l1.8,1.8C-581.1,407.4-581.1,408.3-581.7,408.9z M-602.9,423.3
		l2.9,2.9l-1.2,0.3l-2-2L-602.9,423.3z"/>
</g>
</svg>
