<?xml version="1.0" encoding="utf-8"?>
<!-- Generator: Adobe Illustrator 25.2.3, SVG Export Plug-In . SVG Version: 6.00 Build 0)  -->
<svg version="1.1" id="Capa_1" xmlns="http://www.w3.org/2000/svg" xmlns:xlink="http://www.w3.org/1999/xlink" x="0px" y="0px"
	 viewBox="0 0 112 112" style="enable-background:new 0 0 112 112;" xml:space="preserve">
<style type="text/css">
	.st0{fill:#79C3AA;}
</style>
<path class="st0" d="M80.4,33.9H31.6c-3.1,0-5.6,2.5-5.6,5.6v32.9c0,3.1,2.5,5.6,5.6,5.6h48.8c3.1,0,5.6-2.5,5.6-5.6V39.5
	C86,36.4,83.5,33.9,80.4,33.9z M29.9,40.6l22.4,17.6c1.1,0.9,2.4,1.3,3.7,1.3c1.3,0,2.7-0.4,3.7-1.3L82.1,40v32.4
	c0,0.9-0.8,1.7-1.7,1.7H31.6c-0.9,0-1.7-0.8-1.7-1.7V40.6z M57.3,55.2c-0.7,0.6-1.8,0.6-2.6,0l-22-17.3h45.9L57.3,55.2z"/>
</svg>
