<?xml version="1.0" encoding="utf-8"?>
<!-- Generator: Adobe Illustrator 25.2.3, SVG Export Plug-In . SVG Version: 6.00 Build 0)  -->
<svg version="1.1" id="Capa_1" xmlns="http://www.w3.org/2000/svg" xmlns:xlink="http://www.w3.org/1999/xlink" x="0px" y="0px"
	 viewBox="0 0 112 112" style="enable-background:new 0 0 112 112;" xml:space="preserve">
<style type="text/css">
	.st0{fill:#79C3AA;}
</style>
<g>
	<g id="Group_214" transform="translate(256 90)">
		<path id="Path_37" class="st0" d="M-178.4-38.3c-1.5,0.2-3,0.3-4.5,0.6c-0.5,0.1-1.1,0.2-1.6,0.4c-0.8,0.2-1.7,0.4-2.5,0.8
			c-5.5,1.6-9.8,3.9-12.7,6.6l-0.2,0.2l-0.4-0.2c-3.9-3.8-9.6-5.9-13.8-6.8L-215-37l0.5-0.6c3.6-4.2,9-6.6,14.5-6.5
			c3.3,0,6.7,0.8,9.6,2.4c0.8,0.4,1.7,0.2,2-0.6c0.4-0.8,0.2-1.7-0.6-2c-1.3-0.8-2.8-1.4-4.3-1.8l-0.8-0.2l0.8-0.6
			c3-2.3,4.8-5.7,4.9-9.6c-0.4-6.5-5.7-11.6-12.1-11.8c-6.6,0-11.9,5.3-11.9,11.9c0,3.9,1.9,7.6,5.1,9.7l0.8,0.6l-0.8,0.2
			c-4.5,1.4-8.2,4.3-10.6,8l-0.1,0.1l-0.1,0.1l-0.2-0.1c-1.9-0.2-3.2-0.4-3.2-0.4h-0.2c-0.4,0-0.7,0.1-0.9,0.3
			c1.3,0.7,2.4,1.7,3.2,2.9c1,0.1,2.2,0.4,3.6,0.7c4.7,1.1,11.1,3.3,14.6,7.6c0.5,0.6,1.4,0.8,2.2,0.2c0.2-0.2,0.4-0.2,0.5-0.4
			c3.1-3.8,8.5-6,12.5-7.1c0.4-0.1,0.9-0.2,1.4-0.3c0.4-0.1,0.7-0.2,1.1-0.3c0.9-0.2,1.8-0.4,2.8-0.5c0.9-1.3,2.1-2.4,3.6-3
			C-177.8-38.3-178.1-38.3-178.4-38.3z M-209.3-56.5c0-4.9,3.9-8.8,8.8-8.8c4.9,0,8.8,3.9,8.8,8.8c0,4.9-3.9,8.8-8.8,8.8
			C-205.2-47.7-209.2-51.6-209.3-56.5z"/>
	</g>
	<g>
		<g id="Group_214_1_" transform="translate(256 90)">
			<path id="Path_37_1_" class="st0" d="M-203.3-10.5c0-0.8-0.8-1.4-1.6-1.3c-2,0.2-4.1,0.5-6.1,1c-0.8,0.2-1.7,0.4-2.5,0.8
				c-5.5,1.6-9.8,3.8-12.7,6.6l-0.2,0.2l-0.4-0.2c-3.9-3.9-9.6-5.9-13.8-6.8l-0.8-0.2l0.5-0.6c3.6-4.2,9-6.6,14.5-6.5
				c3.3,0,6.7,0.8,9.6,2.4c0.8,0.4,1.7,0.2,2-0.6c0.4-0.8,0.2-1.7-0.6-2c-1.3-0.8-2.8-1.4-4.3-1.8l-0.8-0.2l0.8-0.6
				c3-2.3,4.8-5.7,4.9-9.6c-0.1-1.5-0.4-2.9-1-4.2c-0.5-1.3-1.3-2.5-2.2-3.5c-2.2-2.5-5.4-4-8.8-4.1c-6.6,0-11.9,5.3-11.9,11.9
				c0,3.8,1.9,7.6,5.1,9.7l0.8,0.6l-0.8,0.2c-4.5,1.4-8.1,4.3-10.6,8l-0.2,0.2l-0.2-0.2c-1.9-0.2-3.2-0.4-3.2-0.4h-0.2
				c-0.8,0-1.4,0.6-1.4,1.3c0,0.5,0.2,1,0.5,1.2c0.2,0.4,0.8,0.5,1.1,0.5c0.2,0,14.7,1.2,20.5,8.5c0.5,0.6,1.4,0.8,2.2,0.2
				c0.2-0.2,0.4-0.2,0.4-0.4c3.1-3.8,8.5-6,12.5-7.1c0.8-0.2,1.6-0.4,2.4-0.6c1.9-0.4,3.8-0.8,5.7-0.8
				C-203.8-8.9-203.2-9.7-203.3-10.5z M-235.8-30.1c0-4.9,3.9-8.8,8.8-8.8c1.5,0,2.9,0.4,4.1,1c1.3,0.7,2.4,1.7,3.2,2.9
				c0.9,1.4,1.5,3.1,1.5,4.9c0,4.9-3.9,8.8-8.8,8.8C-231.7-21.2-235.7-25.2-235.8-30.1z"/>
		</g>
		<g id="Group_214_2_" transform="translate(256 90)">
			<path id="Path_37_2_" class="st0" d="M-150.2-10.5c0-0.8-0.8-1.4-1.6-1.3c-2,0.2-4.1,0.5-6.1,1c-0.8,0.2-1.7,0.4-2.5,0.8
				c-5.5,1.6-9.8,3.8-12.7,6.6l-0.2,0.2l-0.4-0.2c-3.9-3.9-9.6-5.9-13.8-6.8l-0.8-0.2l0.5-0.6c3.6-4.2,9-6.6,14.5-6.5
				c3.3,0,6.7,0.8,9.6,2.4c0.8,0.4,1.7,0.2,2-0.6c0.4-0.8,0.1-1.7-0.6-2c-1.3-0.8-2.8-1.4-4.3-1.8l-0.8-0.2l0.8-0.6
				c3-2.3,4.8-5.7,4.9-9.6c-0.4-6.5-5.7-11.6-12.1-11.8c-3.6,0-6.9,1.6-9.1,4.2c-0.8,1-1.5,2.1-2,3.3c-0.5,1.3-0.8,2.8-0.8,4.3
				c0,3.8,1.9,7.6,5.1,9.7l0.8,0.6l-0.8,0.2c-4.4,1.4-8.1,4.3-10.6,8l-0.2,0.2l-0.2-0.2c-1.9-0.2-3.2-0.4-3.2-0.4h-0.1
				c-0.8,0-1.4,0.6-1.4,1.3c0,0.5,0.2,1,0.5,1.2c0.2,0.4,0.8,0.5,1.1,0.5c0.2,0,14.6,1.2,20.5,8.5c0.5,0.6,1.4,0.8,2.2,0.2
				c0.2-0.2,0.4-0.2,0.5-0.4c3.1-3.8,8.5-6,12.5-7.1c0.8-0.2,1.6-0.4,2.4-0.6c1.9-0.4,3.9-0.8,5.7-0.8
				C-150.6-8.9-150-9.7-150.2-10.5z M-182.6-30.1c0-1.9,0.6-3.6,1.5-5c0.9-1.3,2.1-2.4,3.6-3c1.1-0.5,2.4-0.8,3.7-0.8
				c4.9,0,8.8,3.9,8.8,8.8c0,4.9-3.9,8.8-8.8,8.8C-178.6-21.2-182.6-25.2-182.6-30.1z"/>
		</g>
	</g>
</g>
</svg>
