<?xml version="1.0" encoding="utf-8"?>
<!-- Generator: Adobe Illustrator 19.0.0, SVG Export Plug-In . SVG Version: 6.00 Build 0)  -->
<svg version="1.1" id="Capa_1" xmlns="http://www.w3.org/2000/svg" xmlns:xlink="http://www.w3.org/1999/xlink" x="0px" y="0px"
	 viewBox="-782 345 311 311" style="enable-background:new -782 345 311 311;" xml:space="preserve">
<style type="text/css">
	.st0{fill:#49392B;}
</style>
<g>
	<g>
		<g>
			<g id="Group_214_1_" transform="translate(256 90)">
				<path id="Path_37_1_" class="st0" d="M-814.7,414.5c0-1.1-1-1.9-2.1-1.7c-2.7,0.3-5.4,0.6-8.1,1.3c-1.1,0.2-2.2,0.5-3.3,1
					c-7.3,2.1-13,5.1-16.8,8.7l-0.3,0.3l-0.5-0.3c-5.2-5.1-12.7-7.8-18.3-9l-1.1-0.3l0.6-0.8c4.8-5.6,11.9-8.7,19.2-8.6
					c4.4,0,8.9,1.1,12.7,3.2c1,0.5,2.2,0.2,2.7-0.8s0.2-2.2-0.8-2.7c-1.7-1-3.7-1.9-5.7-2.4l-1.1-0.3l1-0.8c4-3,6.4-7.6,6.5-12.7
					c-0.5-8.6-7.5-15.4-16-15.6c-8.7,0-15.7,7-15.7,15.7c0,5.1,2.5,10,6.7,12.9l1,0.8l-1.1,0.3c-5.8,1.8-10.6,5.5-13.8,10.2
					c-0.1,0.1-0.2,0.2-0.3,0.4l-0.3,0.3l-0.3-0.2c-1.5-0.2-2.8-0.3-3.6-0.4c0.9,1.2,1.5,2.6,1.8,4.1c1.2,0.2,2.6,0.4,4.3,0.8
					c6.3,1.3,15.4,4.2,20.2,10.2c0.6,0.8,1.9,1,2.9,0.3c0.3-0.3,0.5-0.3,0.6-0.5c4.1-5.1,11.3-7.9,16.5-9.4c1-0.3,2.1-0.5,3.2-0.8
					c2.5-0.5,5.1-1,7.6-1.1C-815.3,416.6-814.5,415.6-814.7,414.5z M-857.7,388.6c0-6.5,5.2-11.7,11.7-11.7s11.7,5.2,11.7,11.7
					s-5.2,11.7-11.7,11.7C-852.3,400.3-857.6,395.1-857.7,388.6z"/>
			</g>
			<g id="Group_214_2_" transform="translate(256 90)">
				<path id="Path_37_2_" class="st0" d="M-897.6,413.8c-0.4,0.1-0.9,0.2-1.3,0.3c-1.1,0.2-2.2,0.5-3.3,1c-7.3,2.1-13,5.1-16.8,8.7
					l-0.3,0.3l-0.5-0.3c-5.2-5.1-12.7-7.8-18.3-9l-1.1-0.3l0.6-0.8c4.8-5.6,11.9-8.7,19.2-8.6c4.4,0,8.9,1.1,12.7,3.2
					c1,0.5,2.2,0.2,2.7-0.8s0.2-2.2-0.8-2.7c-1.7-1-3.7-1.9-5.7-2.4l-1.1-0.3l1-0.8c4-3,6.4-7.6,6.5-12.7c-0.5-8.6-7.5-15.4-16-15.6
					c-8.7,0-15.7,7-15.7,15.7c0,5.1,2.5,10,6.7,12.9l1,0.8l-1.1,0.3c-5.9,1.9-10.8,5.7-14.1,10.6l-0.3,0.3l-0.3-0.2
					c-2.5-0.3-4.3-0.5-4.3-0.5h-0.2c-1.1,0-1.9,0.8-1.9,1.7c0,0.6,0.2,1.3,0.6,1.6c0.3,0.5,1,0.6,1.4,0.6c0.3,0,19.4,1.6,27.1,11.3
					c0.6,0.8,1.9,1,2.9,0.3c0.3-0.3,0.5-0.3,0.6-0.5c4.1-5.1,11.3-7.9,16.5-9.4c0.8-0.2,1.7-0.4,2.6-0.6c0.2,0,0.4-0.1,0.6-0.2
					c1.2-0.2,2.4-0.5,3.7-0.7c0.3-1.5,0.9-2.8,1.8-4C-894.3,413.2-896,413.5-897.6,413.8z M-931.8,388.6c0-6.5,5.2-11.7,11.7-11.7
					s11.7,5.2,11.7,11.7s-5.2,11.7-11.7,11.7C-926.4,400.3-931.7,395.1-931.8,388.6z"/>
			</g>
		</g>
		<g id="Group_214" transform="translate(256 90)">
			<path id="Path_37" class="st0" d="M-851.7,445.6c0-1.1-1-1.9-2.1-1.7c-2.7,0.3-5.4,0.6-8.1,1.3c-1.1,0.2-2.2,0.5-3.3,1
				c-7.3,2.1-13,5.1-16.8,8.7l-0.3,0.3l-0.5-0.3c-5.2-5.1-12.7-7.8-18.3-9l-1.1-0.3l0.6-0.8c4.8-5.6,11.9-8.7,19.2-8.6
				c4.4,0,8.9,1.1,12.7,3.2c1,0.5,2.2,0.2,2.7-0.8s0.2-2.2-0.8-2.7c-1.7-1-3.7-1.9-5.7-2.4l-1.1-0.3l1-0.8c4-3,6.4-7.6,6.5-12.7
				c0-0.6-0.1-1.2-0.2-1.8c-0.3-1.8-0.9-3.4-1.7-4.9c-2.7-5.2-8-8.7-14.1-8.8c-6.6,0-12.2,4-14.5,9.7c-0.5,1.3-0.9,2.6-1.1,4.1
				c-0.1,0.6-0.1,1.3-0.1,1.9c0,5.1,2.5,10,6.7,12.9l1,0.8l-1.1,0.3c-5.9,1.9-10.8,5.7-14.1,10.6l-0.3,0.3l-0.3-0.2
				c-2.5-0.3-4.3-0.5-4.3-0.5h-0.2c-1.1,0-1.9,0.8-1.9,1.7c0,0.6,0.2,1.3,0.6,1.6c0.3,0.5,1,0.6,1.4,0.6c0.3,0,19.4,1.6,27.1,11.3
				c0.6,0.8,1.9,1,2.9,0.3c0.3-0.3,0.5-0.3,0.6-0.5c4.1-5.1,11.3-7.9,16.5-9.4c1-0.3,2.1-0.5,3.2-0.8c2.5-0.5,5.1-1,7.6-1.1
				C-852.3,447.7-851.5,446.7-851.7,445.6z M-894.7,419.7c0-0.9,0.1-1.8,0.3-2.7c0.3-1.5,0.9-2.8,1.8-4c2.1-3,5.6-5,9.6-5
				c4,0,7.5,2,9.6,5c0.9,1.2,1.5,2.6,1.8,4.1c0.2,0.8,0.3,1.7,0.3,2.6c0,6.5-5.2,11.7-11.7,11.7
				C-889.3,431.4-894.6,426.2-894.7,419.7z"/>
		</g>
	</g>
	<g>
		<path class="st0" d="M-626.5,575.7c-41.4,0-75.2-33.7-75.2-75.2s33.7-75.2,75.2-75.2s75.2,33.7,75.2,75.2
			S-585.1,575.7-626.5,575.7z M-626.5,429.3c-39.2,0-71.2,31.9-71.2,71.2s31.9,71.2,71.2,71.2s71.2-31.9,71.2-71.2
			S-587.3,429.3-626.5,429.3z"/>
	</g>
</g>
</svg>
