<?xml version="1.0" encoding="utf-8"?>
<!-- Generator: Adobe Illustrator 19.0.0, SVG Export Plug-In . SVG Version: 6.00 Build 0)  -->
<svg version="1.1" id="Capa_1" xmlns="http://www.w3.org/2000/svg" xmlns:xlink="http://www.w3.org/1999/xlink" x="0px" y="0px"
	 viewBox="0 0 50 50" style="enable-background:new 0 0 50 50;" xml:space="preserve">
<style type="text/css">
	.st0{fill:#79C3AA;}
</style>
<g>
	<path class="st0" d="M44.6,15.2v19.6c0,5.4-4.4,9.8-9.8,9.8H15.2c-5.4,0-9.8-4.4-9.8-9.8v-0.6c0-0.9,0.7-1.6,1.6-1.6
		s1.6,0.7,1.6,1.6v0.6c0,3.6,2.9,6.5,6.5,6.5h19.6c3.6,0,6.5-2.9,6.5-6.5V15.2c0-3.6-2.9-6.5-6.5-6.5H15.2c-3.6,0-6.5,2.9-6.5,6.5
		v0.6c0,0.9-0.7,1.6-1.6,1.6s-1.6-0.7-1.6-1.6v-0.6c0-5.4,4.4-9.8,9.8-9.8h19.6C40.2,5.4,44.6,9.8,44.6,15.2z M15.6,16.5
		c-0.6-0.6-1.7-0.6-2.3,0c0,0,0,0,0,0l-7.4,7.4c-0.6,0.6-0.6,1.7,0,2.3c0,0,0,0,0,0l7.4,7.4c0.6,0.6,1.7,0.6,2.3,0c0,0,0,0,0,0
		c0.6-0.6,0.6-1.7,0-2.3c0,0,0,0,0,0L11,26.6h17.8c0.9,0,1.6-0.7,1.6-1.6c0-0.9-0.7-1.6-1.6-1.6H11l4.6-4.6
		C16.2,18.1,16.2,17.1,15.6,16.5C15.6,16.5,15.6,16.5,15.6,16.5z"/>
</g>
</svg>
