<?xml version="1.0" encoding="utf-8"?>
<!-- Generator: Adobe Illustrator 19.0.0, SVG Export Plug-In . SVG Version: 6.00 Build 0)  -->
<svg version="1.1" id="Capa_1" xmlns="http://www.w3.org/2000/svg" xmlns:xlink="http://www.w3.org/1999/xlink" x="0px" y="0px"
	 viewBox="-218 458 563 86" style="enable-background:new -218 458 563 86;" xml:space="preserve">
<style type="text/css">
	.st0{fill:#C9B8B7;}
	.st1{fill:#7AC3A9;}
	.st2{fill:#ED7224;}
	.st3{fill:#EAA62B;}
	.st4{fill:#49392B;}
</style>
<g>
	<g id="XMLID_27_">
		<path id="XMLID_225_" class="st0" d="M-186.6,537.3l-2.9-16.7l-16.8-0.1l8.3-14.2l-12.9-10.7l16-5.8l-2.9-16.7l15.8,5.8l8.4-14.4
			l8.3,14.5l15.6-5.7l-2.9,16.4l15.7,5.8l-12.7,10.7l8.4,14.5l-16.8-0.1l-2.9,16.6l-12.9-10.7L-186.6,537.3z M-205.8,520.2l16.5,0.1
			l2.9,16.4l12.6-10.6l12.7,10.6l2.9-16.3l16.5,0.1l-8.2-14.3l12.5-10.5l-15.5-5.7l2.8-16.2l-15.4,5.6l-8.2-14.2l-8.3,14.2
			l-15.6-5.7l2.9,16.4l-15.7,5.7l12.7,10.6L-205.8,520.2z M-161.4,536l-12-10.1l6.6-5.5l8.2,0L-161.4,536z M-173,525.9l11.4,9.5
			l2.6-14.7l-7.8,0L-173,525.9z M-186.1,536l-2.7-15.6l8.1,0l6.7,5.6L-186.1,536z M-188.5,520.6l2.6,14.8l11.3-9.5l-6.3-5.3
			L-188.5,520.6z M-173.8,525.6l-6.3-5.3l12.6,0.1L-173.8,525.6z M-179.3,520.6l5.5,4.6l5.4-4.6L-179.3,520.6z M-142.4,520.1
			l-15.7-0.1l1.4-8.1l6.5-5.4L-142.4,520.1z M-157.8,519.7l14.9,0.1l-7.4-12.9l-6.1,5.1L-157.8,519.7z M-158.6,520l-7.8,0l9.1-7.7
			L-158.6,520z M-165.6,519.7l6.8,0l1.2-6.7L-165.6,519.7z M-167,520L-167,520l-13.6-0.1l-9.7-8.1l-2.3-13.3l6.6-11.2l12.5-4.5l0,0
			l12.3,4.5l6.5,11.2l-2.3,13.1L-167,520z M-180.5,519.6l13.4,0.1l9.7-8.2l2.3-12.9l-6.4-11.1l-12.1-4.5l-12.3,4.5l-6.5,11l2.3,13
			L-180.5,519.6z M-181.2,519.9l-7.6,0l-1.3-7.4L-181.2,519.9z M-188.6,519.6l6.6,0l-7.7-6.4L-188.6,519.6z M-189.3,519.9l-15.7-0.1
			l7.8-13.3l6.6,5.5L-189.3,519.9z M-204.5,519.5l14.9,0.1l-1.3-7.4l-6.2-5.2L-204.5,519.5z M-190.8,511.4l-6.3-5.2l4.1-7
			L-190.8,511.4z M-196.7,506.1l5.5,4.6l-1.9-10.7L-196.7,506.1z M-156.6,511.2l2.1-12.1l4,7L-156.6,511.2z M-154.3,500l-1.9,10.5
			l5.3-4.5L-154.3,500z M-197.4,505.9l-12.1-10.1l15-5.4l1.4,8.1L-197.4,505.9z M-208.9,495.9l11.4,9.5l4.1-7l-1.3-7.6L-208.9,495.9
			z M-150.1,505.8l-4.2-7.3l1.4-8.1l14.7,5.4L-150.1,505.8z M-154.1,498.4l4,6.9l11.3-9.5l-13.9-5.1L-154.1,498.4z M-154.7,497.9
			l-6-10.4l7.3,2.7L-154.7,497.9z M-160,488.1l5.2,9l1.2-6.6L-160,488.1z M-192.7,497.9l-1.3-7.7l7.4-2.7L-192.7,497.9z
			 M-193.7,490.4l1.2,6.7l5.2-9L-193.7,490.4z M-153.3,489.8l-7.7-2.8l-4.2-7.2l14.6-5.3L-153.3,489.8z M-160.8,486.8l7.3,2.7
			l2.6-14.6l-13.8,5L-160.8,486.8z M-194.1,489.8l-2.7-15.6l14.8,5.5l-4.3,7.3L-194.1,489.8z M-196.5,474.7l2.6,14.8l7.4-2.7l4-6.9
			L-196.5,474.7z M-161.6,486.8l-11.4-4.2l7.4-2.7L-161.6,486.8z M-172.1,482.6l9.9,3.6l-3.4-6L-172.1,482.6z M-185.7,486.8l4.1-6.9
			l7.5,2.8L-185.7,486.8z M-181.5,480.2l-3.5,6l10-3.6L-181.5,480.2z M-173.6,482.4l-7.9-2.9l7.9-13.5l7.8,13.5L-173.6,482.4z
			 M-181,479.3l7.4,2.7l7.4-2.7l-7.4-12.8L-181,479.3z"/>
	</g>
	<g id="XMLID_6_">
		<circle id="XMLID_8_" class="st1" cx="-186.2" cy="536.4" r="3.9"/>
		<circle id="XMLID_10_" class="st2" cx="-161.2" cy="536.4" r="3.9"/>
		<circle id="XMLID_12_" class="st3" cx="-142" cy="520.3" r="3.9"/>
		<circle id="XMLID_13_" class="st1" cx="-137.8" cy="495.8" r="3.9"/>
		<circle id="XMLID_14_" class="st2" cx="-150.3" cy="474.1" r="3.9"/>
		<circle id="XMLID_15_" class="st3" cx="-173.5" cy="465.6" r="3.9"/>
		<circle id="XMLID_16_" class="st1" cx="-197.1" cy="473.9" r="3.9"/>
		<circle id="XMLID_17_" class="st2" cx="-209.9" cy="495.8" r="3.9"/>
		<circle id="XMLID_18_" class="st3" cx="-205.4" cy="520.3" r="3.9"/>
	</g>
</g>
<g id="XMLID_5_">
	<g>
		<path id="XMLID_412_" class="st4" d="M-72.1,507.2c0,2.5-0.2,4.7-0.7,6.5c-0.5,1.8-1.1,3.3-2,4.5c-0.9,1.2-2,2.1-3.3,2.6
			c-1.3,0.6-2.9,0.9-4.6,0.9c-1,0-1.9-0.1-2.7-0.3c-0.8-0.2-1.5-0.5-2.2-0.9c-0.7-0.4-1.2-0.9-1.7-1.4c-0.5-0.6-0.9-1.2-1.3-1.9
			h-0.5l-1.4,4.1h-9.9v-2.8h0.4c0.5,0,1,0,1.4-0.1c0.5-0.1,0.9-0.3,1.3-0.5c0.4-0.3,0.7-0.6,0.9-1.1c0.2-0.5,0.3-1.1,0.3-1.9v-26.9
			c0-0.7-0.1-1.3-0.3-1.8c-0.2-0.4-0.5-0.8-0.9-1.1c-0.4-0.3-0.8-0.4-1.3-0.5c-0.5-0.1-1-0.1-1.6-0.1h-0.2v-2.7h12.2v8.9
			c0,0.5,0,1.2-0.1,1.9c0,0.7-0.1,1.4-0.1,2.1c-0.1,0.8-0.1,1.5-0.2,2.3h0.4c0.7-1.3,1.7-2.3,3-3c1.2-0.7,2.8-1.1,4.8-1.1
			c1.7,0,3.2,0.3,4.5,0.9c1.3,0.6,2.4,1.4,3.3,2.6c0.9,1.2,1.6,2.7,2,4.5C-72.3,502.5-72.1,504.7-72.1,507.2z M-85,496.5
			c-1,0-1.9,0.2-2.6,0.6c-0.7,0.4-1.2,1.1-1.6,2c-0.4,0.9-0.7,2-0.9,3.3c-0.2,1.3-0.3,2.9-0.3,4.7c0,1.7,0.1,3.2,0.3,4.6
			c0.2,1.3,0.5,2.4,0.9,3.4c0.4,0.9,1,1.6,1.7,2.1c0.7,0.5,1.6,0.7,2.6,0.7c1.7,0,2.9-0.9,3.7-2.8c0.8-1.8,1.1-4.5,1.1-8
			c0-3.5-0.4-6.2-1.1-7.9C-82,497.4-83.2,496.5-85,496.5z"/>
		<path id="XMLID_409_" class="st4" d="M-54.6,495.8c-0.7,0-1.2,0.1-1.7,0.4c-0.4,0.3-0.8,0.7-1.1,1.2c-0.3,0.5-0.5,1.1-0.6,1.8
			c-0.1,0.7-0.2,1.4-0.2,2.2c-2.3,0-4.1-0.3-5.3-0.8c-1.2-0.5-1.8-1.4-1.8-2.7c0-0.9,0.3-1.8,0.9-2.4c0.6-0.7,1.3-1.2,2.3-1.7
			c1-0.4,2.1-0.7,3.4-0.9c1.3-0.2,2.7-0.3,4.2-0.3c1.8,0,3.4,0.2,4.8,0.5c1.4,0.3,2.5,0.8,3.4,1.5c0.9,0.7,1.6,1.6,2,2.7
			c0.5,1.1,0.7,2.5,0.7,4.1v13.3c0,0.7,0.1,1.3,0.2,1.8c0.1,0.5,0.3,0.9,0.5,1.1c0.2,0.3,0.6,0.5,1,0.6c0.4,0.1,0.9,0.2,1.5,0.2h0.2
			v2.8h-9.7l-1.1-3.6h-0.5c-0.6,0.7-1.1,1.3-1.6,1.8c-0.5,0.5-1,0.9-1.6,1.3c-0.6,0.3-1.2,0.6-1.9,0.7c-0.7,0.2-1.6,0.2-2.6,0.2
			c-1.2,0-2.2-0.2-3.2-0.5c-1-0.3-1.9-0.9-2.6-1.6c-0.7-0.7-1.3-1.6-1.7-2.6c-0.4-1.1-0.6-2.3-0.6-3.7c0-2.8,1-4.9,2.9-6.3
			c1.9-1.4,4.9-2.1,8.7-2.2l4.3-0.2v-2.9c0-0.9,0-1.7-0.1-2.4c-0.1-0.7-0.2-1.4-0.4-1.9c-0.2-0.5-0.5-0.9-1-1.2
			S-53.9,495.8-54.6,495.8z M-59.2,513.5c0,1.5,0.2,2.6,0.7,3.4c0.5,0.7,1.2,1.1,2.2,1.1c0.7,0,1.4-0.2,2-0.5
			c0.6-0.3,1.1-0.8,1.5-1.3c0.4-0.6,0.8-1.3,1-2.1c0.2-0.8,0.3-1.7,0.3-2.8v-3.9l-2.3,0.2c-1,0.1-1.9,0.2-2.6,0.5
			c-0.7,0.3-1.3,0.7-1.7,1.2c-0.4,0.5-0.7,1.1-0.9,1.8C-59.1,511.7-59.2,512.5-59.2,513.5z"/>
		<path id="XMLID_407_" class="st4" d="M-16.7,521.2v-17.1c0-1.1-0.1-2.1-0.2-3c-0.1-0.9-0.4-1.6-0.7-2.2c-0.3-0.6-0.8-1-1.3-1.4
			c-0.5-0.3-1.2-0.5-1.9-0.5c-0.9,0-1.6,0.2-2.2,0.7s-1,1-1.4,1.8c-0.3,0.7-0.6,1.6-0.7,2.6c-0.2,1-0.2,2-0.2,3.1v9.9
			c0,0.7,0.1,1.3,0.3,1.8c0.2,0.4,0.4,0.8,0.7,1c0.3,0.2,0.7,0.4,1.2,0.5c0.5,0.1,1,0.1,1.6,0.1h0.2v2.8h-16v-2.8h0.1
			c0.6,0,1.1,0,1.6-0.1c0.5-0.1,0.9-0.2,1.3-0.5c0.4-0.3,0.6-0.6,0.9-1.1c0.2-0.5,0.3-1.1,0.3-1.9v-27.3c0-0.7-0.1-1.2-0.4-1.7
			c-0.2-0.4-0.6-0.7-0.9-1c-0.4-0.2-0.8-0.4-1.2-0.4c-0.4-0.1-0.8-0.1-1.2-0.1h-0.6v-2.7h12.2v8.6c0,0.7,0,1.4-0.1,2.2
			c0,0.8-0.1,1.5-0.1,2.2c-0.1,0.8-0.1,1.5-0.2,2.3h0.5c0.5-1,1.1-1.8,1.7-2.3c0.6-0.6,1.2-1,1.9-1.3c0.7-0.3,1.4-0.5,2.1-0.5
			c0.7-0.1,1.5-0.1,2.3-0.1c1.3,0,2.5,0.2,3.6,0.6c1.1,0.4,2,1,2.7,1.8c0.7,0.8,1.3,1.8,1.7,3.1c0.4,1.3,0.6,2.8,0.6,4.5v12.1
			c0,0.8,0.1,1.5,0.2,1.9c0.1,0.5,0.4,0.9,0.6,1.1c0.3,0.3,0.7,0.4,1.1,0.5c0.4,0.1,1,0.1,1.5,0.1h0.2v2.8H-16.7z"/>
		<path id="XMLID_404_" class="st4" d="M11.3,495.8c-0.7,0-1.2,0.1-1.7,0.4c-0.4,0.3-0.8,0.7-1.1,1.2c-0.3,0.5-0.5,1.1-0.6,1.8
			c-0.1,0.7-0.2,1.4-0.2,2.2c-2.3,0-4.1-0.3-5.3-0.8c-1.2-0.5-1.8-1.4-1.8-2.7c0-0.9,0.3-1.8,0.9-2.4c0.6-0.7,1.3-1.2,2.3-1.7
			c1-0.4,2.1-0.7,3.4-0.9c1.3-0.2,2.7-0.3,4.2-0.3c1.8,0,3.4,0.2,4.8,0.5c1.4,0.3,2.5,0.8,3.4,1.5c0.9,0.7,1.6,1.6,2,2.7
			c0.5,1.1,0.7,2.5,0.7,4.1v13.3c0,0.7,0.1,1.3,0.2,1.8c0.1,0.5,0.3,0.9,0.5,1.1c0.2,0.3,0.6,0.5,1,0.6c0.4,0.1,0.9,0.2,1.5,0.2h0.2
			v2.8H16l-1.1-3.6h-0.5c-0.6,0.7-1.1,1.3-1.6,1.8c-0.5,0.5-1,0.9-1.6,1.3c-0.6,0.3-1.2,0.6-1.9,0.7c-0.7,0.2-1.6,0.2-2.6,0.2
			c-1.2,0-2.2-0.2-3.2-0.5c-1-0.3-1.9-0.9-2.6-1.6c-0.7-0.7-1.3-1.6-1.7-2.6c-0.4-1.1-0.6-2.3-0.6-3.7c0-2.8,1-4.9,2.9-6.3
			c1.9-1.4,4.9-2.1,8.7-2.2l4.3-0.2v-2.9c0-0.9,0-1.7-0.1-2.4c-0.1-0.7-0.2-1.4-0.4-1.9c-0.2-0.5-0.5-0.9-1-1.2S12,495.8,11.3,495.8
			z M6.6,513.5c0,1.5,0.2,2.6,0.7,3.4c0.5,0.7,1.2,1.1,2.2,1.1c0.7,0,1.4-0.2,2-0.5c0.6-0.3,1.1-0.8,1.5-1.3c0.4-0.6,0.8-1.3,1-2.1
			c0.2-0.8,0.3-1.7,0.3-2.8v-3.9l-2.3,0.2c-1,0.1-1.9,0.2-2.6,0.5c-0.7,0.3-1.3,0.7-1.7,1.2c-0.4,0.5-0.7,1.1-0.9,1.8
			C6.7,511.7,6.6,512.5,6.6,513.5z"/>
		<path id="XMLID_401_" class="st4" d="M28.9,518.4c0.4,0,0.8,0,1.2-0.1s0.8-0.2,1.2-0.5s0.7-0.6,0.9-1c0.2-0.4,0.4-1,0.4-1.8v-15.8
			c0-0.7-0.1-1.2-0.4-1.7c-0.2-0.4-0.6-0.7-0.9-1c-0.4-0.2-0.8-0.4-1.2-0.4c-0.4-0.1-0.8-0.1-1.2-0.1h-0.6v-2.8h12.2v21.7
			c0,0.7,0.1,1.3,0.4,1.8c0.2,0.4,0.6,0.8,0.9,1s0.8,0.4,1.2,0.5c0.4,0.1,0.8,0.1,1.2,0.1h0.6v2.8H28.3v-2.8H28.9z M31.9,484.9
			c0-0.7,0.1-1.2,0.3-1.7c0.2-0.5,0.5-0.9,0.9-1.2c0.4-0.3,0.9-0.5,1.4-0.7c0.5-0.1,1.1-0.2,1.7-0.2c0.6,0,1.2,0.1,1.7,0.2
			c0.5,0.1,1,0.4,1.4,0.7c0.4,0.3,0.7,0.7,1,1.2c0.2,0.5,0.4,1,0.4,1.7c0,0.6-0.1,1.2-0.4,1.7c-0.2,0.5-0.6,0.9-1,1.2
			c-0.4,0.3-0.9,0.5-1.4,0.7s-1.1,0.2-1.7,0.2c-0.6,0-1.2-0.1-1.7-0.2c-0.5-0.2-1-0.4-1.4-0.7c-0.4-0.3-0.7-0.7-0.9-1.2
			C32,486.1,31.9,485.5,31.9,484.9z"/>
		<path id="XMLID_399_" class="st4" d="M56.6,521.7c-1.3,0-2.5-0.1-3.5-0.3c-1.1-0.2-2-0.6-2.7-1c-0.7-0.5-1.3-1-1.7-1.7
			c-0.4-0.7-0.6-1.5-0.6-2.4c0-0.7,0.1-1.3,0.3-1.7c0.2-0.5,0.5-0.8,0.8-1.1c0.3-0.3,0.7-0.5,1.1-0.6s0.7-0.2,1-0.2
			c0,0.9,0.1,1.8,0.3,2.6c0.2,0.8,0.5,1.5,0.9,2.1c0.4,0.6,1,1.1,1.7,1.4c0.7,0.3,1.6,0.5,2.7,0.5c0.9,0,1.8-0.1,2.5-0.3
			c0.7-0.2,1.3-0.6,1.8-1c0.5-0.4,0.9-0.9,1.1-1.5c0.3-0.6,0.4-1.2,0.4-1.9c0-0.6-0.1-1.2-0.3-1.7c-0.2-0.5-0.5-0.9-1-1.3
			c-0.5-0.4-1.1-0.8-2-1.2c-0.8-0.4-1.9-0.9-3.1-1.4c-1.3-0.6-2.5-1.2-3.5-1.7c-1-0.6-1.8-1.1-2.5-1.8c-0.6-0.6-1.1-1.4-1.4-2.2
			c-0.3-0.8-0.5-1.8-0.5-2.9c0-1.2,0.2-2.2,0.7-3.1c0.5-0.9,1.1-1.7,2-2.3c0.9-0.6,1.9-1.1,3.1-1.4c1.2-0.3,2.5-0.5,4-0.5
			c1.2,0,2.3,0.1,3.3,0.4c0.9,0.3,1.7,0.6,2.4,1c0.6,0.4,1.1,0.9,1.4,1.5c0.3,0.6,0.5,1.2,0.5,1.8c0,0.9-0.3,1.7-1,2.3
			c-0.7,0.6-1.6,0.9-2.8,0.9c0-1.7-0.4-3.1-1.1-4.1c-0.7-1-1.9-1.4-3.4-1.4c-0.9,0-1.6,0.1-2.3,0.3c-0.6,0.2-1.1,0.5-1.5,0.9
			c-0.4,0.4-0.7,0.8-0.9,1.3c-0.2,0.5-0.3,1.1-0.3,1.7c0,0.7,0.1,1.2,0.4,1.7c0.2,0.5,0.6,0.9,1.1,1.3c0.5,0.4,1.2,0.8,2,1.2
			c0.8,0.4,1.8,0.8,3,1.3c1.4,0.6,2.5,1.1,3.5,1.7c1,0.6,1.8,1.2,2.4,1.8c0.6,0.7,1.1,1.4,1.4,2.2c0.3,0.8,0.5,1.8,0.5,2.9
			c0,1.4-0.2,2.5-0.7,3.6c-0.5,1-1.2,1.9-2.1,2.6c-0.9,0.7-2,1.2-3.2,1.5C59.6,521.6,58.2,521.7,56.6,521.7z"/>
		<path id="XMLID_397_" class="st4" d="M83,519c0.6,0,1.2,0,1.7-0.1c0.5-0.1,1.1-0.2,1.6-0.3v2.3c-0.2,0.1-0.5,0.2-0.9,0.3
			c-0.4,0.1-0.7,0.2-1.2,0.3c-0.4,0.1-0.9,0.1-1.3,0.2c-0.5,0-0.9,0.1-1.3,0.1c-1.3,0-2.5-0.1-3.4-0.4s-1.7-0.7-2.3-1.4
			c-0.6-0.6-1.1-1.5-1.4-2.5c-0.3-1-0.4-2.3-0.4-3.8v-17.4h-4v-2.1c0.6,0,1.3-0.1,2.1-0.4c0.8-0.3,1.4-0.7,2-1.3
			c0.6-0.6,1.1-1.4,1.4-2.3c0.4-0.9,0.7-2,1-3.3H79v6.4h6.8v3H79v17.5c0,1.8,0.4,3.1,1.1,3.9C80.8,518.6,81.8,519,83,519z"/>
		<path id="XMLID_395_" class="st4" d="M114.9,515.5c0,0.8,0.1,1.4,0.3,1.8c0.2,0.5,0.5,0.8,0.9,1.1c0.4,0.2,0.8,0.4,1.4,0.5
			s1.1,0.1,1.6,0.1h0.2v2.2h-8.3l-0.7-4.2h-0.3c-0.5,1-1.1,1.8-1.7,2.4c-0.6,0.6-1.3,1.1-2,1.4c-0.7,0.3-1.5,0.6-2.2,0.7
			c-0.8,0.1-1.6,0.2-2.4,0.2c-1.4,0-2.6-0.2-3.7-0.6c-1.1-0.4-2-1-2.7-1.8c-0.7-0.8-1.3-1.9-1.7-3.2c-0.4-1.3-0.6-2.8-0.6-4.6v-12.5
			c0-0.8-0.1-1.4-0.3-1.8c-0.2-0.5-0.5-0.8-0.9-1.1c-0.4-0.3-0.8-0.4-1.4-0.5c-0.5-0.1-1.1-0.1-1.6-0.1h-0.2v-2.2H98v18
			c0,1.1,0.1,2.1,0.3,3c0.2,0.9,0.5,1.6,0.9,2.2c0.4,0.6,1,1.1,1.7,1.4c0.7,0.3,1.6,0.5,2.6,0.5c1.2,0,2.1-0.2,3-0.6
			c0.8-0.4,1.5-1,2-1.7s0.9-1.6,1.2-2.7c0.3-1,0.4-2.2,0.4-3.4v-10.7c0-0.8-0.1-1.5-0.3-2c-0.2-0.5-0.5-0.9-0.9-1.1
			c-0.4-0.3-0.8-0.4-1.3-0.5s-1.1-0.1-1.7-0.1h-0.2v-2.2h9.3V515.5z"/>
		<path id="XMLID_392_" class="st4" d="M146.8,515.5c0,0.8,0.1,1.4,0.3,1.8c0.2,0.5,0.5,0.8,0.9,1.1c0.4,0.3,0.8,0.4,1.4,0.5
			c0.5,0.1,1.1,0.1,1.6,0.1h0.4v2.2h-8.8l-0.6-4.7h-0.2c-0.4,0.8-0.8,1.5-1.3,2.1c-0.5,0.6-1.1,1.2-1.7,1.6c-0.6,0.4-1.4,0.8-2.2,1
			c-0.8,0.2-1.7,0.4-2.7,0.4c-1.7,0-3.2-0.3-4.5-0.9c-1.3-0.6-2.4-1.4-3.3-2.6c-0.9-1.2-1.6-2.7-2-4.5c-0.5-1.8-0.7-4-0.7-6.5
			c0-2.5,0.2-4.7,0.7-6.5c0.5-1.8,1.1-3.3,2-4.5s2-2.1,3.3-2.6c1.3-0.6,2.8-0.9,4.5-0.9c1,0,1.9,0.1,2.7,0.3
			c0.8,0.2,1.5,0.5,2.2,0.9c0.7,0.4,1.2,0.9,1.7,1.4c0.5,0.6,0.9,1.2,1.3,1.9h0.3c-0.1-0.8-0.1-1.6-0.2-2.4c0-0.6-0.1-1.3-0.1-1.9
			c0-0.6-0.1-1.1-0.1-1.4v-4.3c0-0.8-0.1-1.4-0.3-1.8c-0.2-0.5-0.5-0.8-0.9-1.1c-0.4-0.3-0.8-0.4-1.4-0.5c-0.5-0.1-1.1-0.1-1.6-0.1
			h-0.4v-2.2h9.6V515.5z M134.9,518.4c1.4,0,2.5-0.2,3.4-0.7c0.9-0.4,1.6-1.1,2.2-2c0.5-0.9,0.9-2.1,1.2-3.5c0.2-1.4,0.3-3,0.3-4.9
			c0-1.8-0.1-3.4-0.3-4.8c-0.2-1.4-0.6-2.6-1.2-3.5c-0.6-0.9-1.3-1.7-2.2-2.1c-0.9-0.5-2.1-0.7-3.4-0.7c-1.1,0-2.1,0.2-2.9,0.7
			c-0.8,0.5-1.5,1.2-2,2.2c-0.5,0.9-0.9,2.1-1.1,3.5c-0.2,1.4-0.4,3-0.4,4.8c0,3.7,0.5,6.5,1.5,8.3
			C130.9,517.5,132.6,518.4,134.9,518.4z"/>
		<path id="XMLID_390_" class="st4" d="M181.8,493.3v2.2h-0.2c-0.5,0-0.9,0.1-1.3,0.2c-0.4,0.1-0.7,0.3-1,0.6
			c-0.3,0.3-0.6,0.7-0.8,1.2c-0.3,0.5-0.5,1.2-0.8,2l-7.9,21.8c-0.6,1.7-1.2,3.1-1.7,4.4c-0.5,1.3-1.1,2.4-1.7,3.3
			c-0.6,0.9-1.2,1.7-1.9,2.2c-0.7,0.6-1.5,1.1-2.4,1.4c-0.9,0.4-1.9,0.6-3.1,0.7c-1.2,0.1-2.5,0.2-4.1,0.2h-0.5v-2.5
			c1.8,0,3.3-0.3,4.5-0.8c1.3-0.5,2.4-1.2,3.3-2.2c0.9-0.9,1.7-2,2.3-3.2c0.6-1.2,1.1-2.6,1.6-4.1l-9.6-22.7c-0.2-0.5-0.5-1-0.7-1.3
			c-0.2-0.3-0.5-0.6-0.7-0.9c-0.3-0.2-0.6-0.4-1-0.5c-0.4-0.1-0.8-0.1-1.3-0.1h-0.2v-2.2h12.5v2.2H165c-1.1,0-1.8,0.2-2.3,0.6
			c-0.5,0.4-0.8,1-0.8,1.9c0,0.3,0,0.6,0.1,0.9c0.1,0.3,0.2,0.6,0.3,1l3.8,9.3c0.2,0.6,0.5,1.2,0.7,1.9c0.3,0.7,0.5,1.4,0.7,2.1
			c0.2,0.7,0.4,1.3,0.6,1.9c0.2,0.6,0.3,1.1,0.4,1.6h0.2c0.2-0.8,0.4-1.7,0.8-2.8c0.3-1.1,0.7-2.3,1.2-3.5l3.5-10.1
			c0.2-0.4,0.3-0.8,0.3-1.2c0.1-0.4,0.1-0.7,0.1-1c0-0.9-0.3-1.5-0.9-2c-0.6-0.4-1.4-0.6-2.6-0.6H171v-2.2H181.8z"/>
		<path id="XMLID_386_" class="st4" d="M210.7,494.3c0,0.4-0.1,0.8-0.2,1.1c-0.1,0.4-0.3,0.7-0.6,1c-0.3,0.3-0.7,0.5-1.1,0.6
			c-0.5,0.2-1.1,0.2-1.8,0.2c0-0.4-0.1-0.7-0.2-0.9c-0.1-0.3-0.3-0.5-0.4-0.7c-0.2-0.2-0.4-0.3-0.6-0.4c-0.2-0.1-0.5-0.1-0.7-0.1
			c-0.3,0-0.6,0.1-0.9,0.2c-0.3,0.1-0.6,0.2-0.8,0.4c0.4,0.4,0.7,0.8,1,1.3s0.6,1,0.8,1.6s0.4,1.2,0.5,1.8c0.1,0.6,0.2,1.2,0.2,1.9
			c0,1.3-0.2,2.5-0.6,3.6s-1.1,2.1-1.9,2.9s-2,1.4-3.3,1.9c-1.3,0.5-2.9,0.7-4.7,0.7c-0.2,0-0.4,0-0.7,0c-0.3,0-0.6,0-0.9,0
			s-0.6,0-0.8-0.1c-0.3,0-0.5,0-0.6-0.1c-0.2,0.1-0.4,0.3-0.7,0.4c-0.2,0.2-0.4,0.4-0.6,0.6c-0.2,0.2-0.3,0.5-0.4,0.7
			c-0.1,0.3-0.2,0.6-0.2,0.9c0,0.6,0.2,1,0.7,1.3c0.4,0.3,1,0.4,1.8,0.4h6.3c1.7,0,3.2,0.2,4.5,0.5c1.3,0.4,2.3,0.9,3.1,1.6
			c0.8,0.7,1.4,1.5,1.8,2.5c0.4,1,0.6,2.1,0.6,3.3c0,1.6-0.3,3-0.9,4.3c-0.6,1.3-1.5,2.3-2.8,3.2c-1.2,0.9-2.8,1.5-4.7,2
			c-1.9,0.5-4.1,0.7-6.7,0.7c-4.1,0-7.1-0.6-9.2-1.8c-2-1.2-3-3-3-5.4c0-1.9,0.6-3.3,1.8-4.3c1.2-1,2.9-1.6,5.2-1.8
			c-0.5-0.2-0.9-0.4-1.4-0.7c-0.5-0.3-0.9-0.6-1.2-1c-0.4-0.4-0.6-0.8-0.9-1.3c-0.2-0.5-0.3-1-0.3-1.7c0-0.6,0.1-1.1,0.3-1.6
			c0.2-0.5,0.5-1,1-1.4c0.4-0.4,0.9-0.9,1.5-1.3c0.6-0.4,1.2-0.8,1.9-1.2c-0.8-0.3-1.5-0.6-2.1-1.1c-0.7-0.5-1.2-1.1-1.7-1.7
			c-0.5-0.7-0.8-1.4-1.1-2.3c-0.3-0.9-0.4-1.8-0.4-2.9c0-3,0.9-5.4,2.7-7.1c1.8-1.7,4.5-2.5,8.2-2.5c1.2,0,2.4,0.2,3.4,0.5
			c1.1,0.3,2,0.7,2.8,1.1c0.3-0.3,0.6-0.6,1-1c0.3-0.3,0.7-0.7,1.2-1c0.4-0.3,0.9-0.5,1.5-0.7c0.5-0.2,1.1-0.3,1.8-0.3
			c0.6,0,1.2,0.1,1.6,0.2c0.5,0.2,0.9,0.4,1.2,0.6c0.3,0.3,0.6,0.6,0.7,0.9C210.6,493.5,210.7,493.9,210.7,494.3z M188.1,526.4
			c0,1.4,0.5,2.5,1.6,3.2c1,0.7,2.6,1,4.6,1c3,0,5.3-0.4,6.7-1.3c1.4-0.9,2.1-2.2,2.1-3.9c0-1.1-0.3-1.9-1-2.3
			c-0.7-0.4-1.7-0.7-3.1-0.7h-6c-0.5,0-1.1,0-1.6,0.1c-0.5,0.1-1,0.3-1.5,0.6c-0.4,0.3-0.8,0.7-1.1,1.2
			C188.2,524.8,188.1,525.5,188.1,526.4z M191.5,502.3c0,0.9,0.1,1.7,0.2,2.5s0.3,1.4,0.6,1.9s0.7,0.9,1.1,1.2
			c0.5,0.3,1,0.4,1.7,0.4c0.7,0,1.3-0.1,1.7-0.4c0.5-0.3,0.8-0.7,1.1-1.2c0.3-0.5,0.5-1.2,0.6-1.9c0.1-0.8,0.2-1.6,0.2-2.5
			c0-1-0.1-1.8-0.2-2.6c-0.1-0.8-0.3-1.5-0.6-2c-0.3-0.6-0.6-1-1.1-1.3c-0.5-0.3-1-0.5-1.7-0.5c-0.7,0-1.2,0.2-1.7,0.5
			c-0.5,0.3-0.8,0.8-1.1,1.3c-0.3,0.6-0.5,1.3-0.6,2.1C191.6,500.5,191.5,501.3,191.5,502.3z"/>
		<path id="XMLID_384_" class="st4" d="M229.4,521.2H212v-2.8h0.2c0.6,0,1.1,0,1.6-0.1c0.5-0.1,0.9-0.3,1.3-0.5
			c0.4-0.3,0.6-0.6,0.8-1.1c0.2-0.5,0.3-1.1,0.3-2v-15.1c0-0.8-0.1-1.4-0.3-1.8c-0.2-0.5-0.4-0.8-0.8-1.1c-0.3-0.3-0.7-0.4-1.2-0.5
			c-0.5-0.1-1-0.1-1.5-0.1h-0.2v-2.8h10.5l1,4.1h0.3c0.3-0.8,0.7-1.5,1.1-2c0.4-0.6,0.9-1.1,1.5-1.5c0.6-0.4,1.2-0.7,2-0.9
			c0.8-0.2,1.7-0.3,2.8-0.3c2,0,3.6,0.4,4.5,1.1c1,0.7,1.4,1.8,1.4,3.1c0,1.6-0.6,2.8-1.7,3.7c-1.2,0.9-2.8,1.3-4.9,1.3
			c0-0.7,0-1.3-0.1-1.9c-0.1-0.5-0.2-1-0.4-1.3c-0.2-0.4-0.5-0.6-0.8-0.8c-0.3-0.2-0.7-0.3-1.2-0.3c-0.6,0-1.1,0.2-1.6,0.5
			c-0.4,0.3-0.8,0.7-1.1,1.2c-0.3,0.5-0.6,1-0.7,1.6c-0.2,0.6-0.3,1.2-0.5,1.8c-0.1,0.6-0.2,1.2-0.2,1.8c0,0.6-0.1,1-0.1,1.4v9
			c0,0.8,0.1,1.4,0.3,1.8c0.2,0.5,0.4,0.8,0.8,1.1c0.3,0.2,0.7,0.4,1.2,0.5c0.4,0.1,0.9,0.1,1.4,0.1h1.7V521.2z"/>
		<path id="XMLID_381_" class="st4" d="M267.6,507.2c0,4.9-1.1,8.5-3.4,10.9c-2.3,2.4-5.7,3.6-10.1,3.6c-2.1,0-4-0.3-5.6-0.9
			c-1.7-0.6-3.1-1.5-4.2-2.7c-1.2-1.2-2-2.7-2.7-4.5c-0.6-1.8-0.9-4-0.9-6.4c0-4.9,1.1-8.5,3.4-10.9c2.3-2.4,5.7-3.6,10.1-3.6
			c2.1,0,4,0.3,5.6,0.9c1.7,0.6,3.1,1.5,4.2,2.7c1.2,1.2,2,2.7,2.7,4.5C267.3,502.6,267.6,504.7,267.6,507.2z M248.7,507.2
			c0,1.8,0.1,3.5,0.3,4.9c0.2,1.4,0.5,2.6,0.9,3.5c0.4,0.9,1,1.7,1.7,2.1c0.7,0.5,1.5,0.7,2.5,0.7c1,0,1.8-0.2,2.5-0.7
			c0.7-0.5,1.2-1.2,1.7-2.1c0.4-0.9,0.7-2.1,0.9-3.5c0.2-1.4,0.3-3,0.3-4.9c0-1.9-0.1-3.5-0.3-4.9c-0.2-1.4-0.5-2.6-0.9-3.5
			c-0.4-0.9-1-1.6-1.7-2.1c-0.7-0.5-1.5-0.7-2.5-0.7c-1,0-1.8,0.2-2.5,0.7c-0.7,0.5-1.3,1.2-1.7,2.1c-0.4,0.9-0.7,2.1-0.9,3.5
			S248.7,505.3,248.7,507.2z"/>
		<path id="XMLID_379_" class="st4" d="M293.1,521.2l-1.1-3.7h-0.3c-0.5,0.9-1.1,1.6-1.7,2.2c-0.6,0.6-1.3,1-2,1.3
			c-0.7,0.3-1.4,0.5-2.2,0.6c-0.8,0.1-1.6,0.2-2.4,0.2c-2.7,0-4.8-0.8-6.2-2.5c-1.4-1.7-2.2-4.3-2.2-7.8v-11.7
			c0-0.8-0.1-1.4-0.2-1.9c-0.1-0.5-0.3-0.8-0.6-1.1c-0.3-0.3-0.7-0.5-1.1-0.6c-0.4-0.1-1-0.2-1.6-0.2h-0.1v-2.8h11.6V510
			c0,1.1,0.1,2.1,0.2,3c0.1,0.9,0.3,1.7,0.6,2.3c0.3,0.6,0.7,1.1,1.2,1.5c0.5,0.3,1.1,0.5,1.9,0.5c0.8,0,1.5-0.2,2.1-0.5
			c0.6-0.4,1.1-0.9,1.5-1.6c0.4-0.7,0.7-1.5,0.8-2.5c0.2-1,0.3-2.1,0.3-3.3v-10c0-0.8-0.1-1.4-0.3-1.8c-0.2-0.4-0.5-0.8-0.8-1
			c-0.3-0.2-0.7-0.4-1.2-0.4c-0.5-0.1-0.9-0.1-1.4-0.1h-0.2v-2.8h11.8v21.8c0,0.8,0.1,1.4,0.3,1.8c0.2,0.4,0.4,0.8,0.7,1
			c0.3,0.2,0.7,0.4,1.1,0.4c0.4,0.1,0.9,0.1,1.4,0.1h0.4v2.8H293.1z"/>
		<path id="XMLID_376_" class="st4" d="M306,530.9c0.4,0,0.8,0,1.2-0.1c0.4-0.1,0.8-0.2,1.2-0.5c0.4-0.2,0.7-0.6,0.9-1
			c0.2-0.4,0.4-1,0.4-1.8v-27.8c0-0.8-0.1-1.4-0.3-1.9c-0.2-0.5-0.4-0.8-0.7-1.1c-0.3-0.3-0.7-0.4-1.1-0.5c-0.4-0.1-0.9-0.1-1.4-0.1
			h-0.4v-2.8H316l0.9,4.1h0.2c0.4-0.7,0.8-1.3,1.3-1.9c0.5-0.6,1.1-1,1.7-1.4c0.7-0.4,1.4-0.7,2.2-0.9c0.8-0.2,1.7-0.3,2.7-0.3
			c1.7,0,3.3,0.3,4.6,0.9c1.3,0.6,2.4,1.4,3.3,2.6c0.9,1.2,1.6,2.7,2,4.5c0.5,1.8,0.7,4,0.7,6.5c0,2.5-0.2,4.7-0.7,6.5
			c-0.5,1.8-1.1,3.3-2,4.5c-0.9,1.2-2,2.1-3.3,2.6c-1.3,0.6-2.8,0.9-4.5,0.9c-2,0-3.6-0.4-4.8-1.1s-2.2-1.8-3-3h-0.4
			c0.1,0.8,0.1,1.6,0.2,2.3c0.1,0.6,0.1,1.3,0.1,2.1c0,0.7,0.1,1.4,0.1,1.9v3.6c0,0.7,0.1,1.3,0.4,1.8c0.2,0.4,0.5,0.8,0.9,1
			c0.4,0.2,0.8,0.4,1.2,0.5c0.4,0.1,0.8,0.1,1.2,0.1h1.1v2.8h-17v-2.8H306z M322.9,518c1.7,0,3-0.9,3.7-2.6c0.8-1.8,1.1-4.4,1.1-7.9
			c0-3.5-0.4-6.1-1.1-8c-0.8-1.8-2-2.8-3.7-2.8c-1,0-1.9,0.2-2.6,0.7c-0.7,0.5-1.2,1.2-1.7,2.1c-0.4,0.9-0.7,2-0.9,3.4
			c-0.2,1.3-0.3,2.8-0.3,4.6c0,1.8,0.1,3.4,0.3,4.7c0.2,1.3,0.5,2.4,0.9,3.3c0.4,0.9,0.9,1.5,1.6,2C321,517.8,321.9,518,322.9,518z"
			/>
	</g>
</g>
</svg>
