<?xml version="1.0" encoding="utf-8"?>
<!-- Generator: Adobe Illustrator 19.0.0, SVG Export Plug-In . SVG Version: 6.00 Build 0)  -->
<svg version="1.1" id="Capa_1" xmlns="http://www.w3.org/2000/svg" xmlns:xlink="http://www.w3.org/1999/xlink" x="0px" y="0px"
	 viewBox="-224 326.3 550.9 348.7" style="enable-background:new -224 326.3 550.9 348.7;" xml:space="preserve">
<style type="text/css">
	.st0{fill:#49392B;}
	.st1{fill:#C9B8B7;}
	.st2{fill:#7AC3A9;}
	.st3{fill:#ED7224;}
	.st4{fill:#EAA62B;}
</style>
<g id="XMLID_5_">
	<g id="XMLID_441_">
		<path id="XMLID_478_" class="st0" d="M-181,637.6c0,3.1-0.3,5.8-0.9,8c-0.6,2.3-1.4,4.1-2.5,5.6c-1.1,1.5-2.5,2.6-4.1,3.3
			c-1.6,0.7-3.5,1-5.6,1c-1.2,0-2.3-0.1-3.3-0.4s-1.9-0.7-2.7-1.2c-0.8-0.5-1.5-1.1-2.1-1.8c-0.6-0.7-1.2-1.4-1.6-2.3h-0.6l-1.8,5
			h-12.3v-3.4h0.5c0.6,0,1.2-0.1,1.8-0.2c0.6-0.1,1.1-0.3,1.6-0.6c0.5-0.3,0.8-0.8,1.1-1.3s0.4-1.4,0.4-2.3v-33.1
			c0-0.9-0.1-1.7-0.4-2.2c-0.3-0.6-0.6-1-1.1-1.3c-0.5-0.3-1-0.5-1.6-0.6c-0.6-0.1-1.3-0.2-2-0.2h-0.3v-3.3h15v10.9
			c0,0.7,0,1.5-0.1,2.3c-0.1,0.9-0.1,1.7-0.2,2.5c-0.1,0.9-0.2,1.9-0.3,2.9h0.4c0.9-1.6,2.1-2.8,3.7-3.8c1.5-0.9,3.5-1.4,5.9-1.4
			c2.1,0,3.9,0.3,5.5,1c1.6,0.7,2.9,1.8,4,3.2c1.1,1.4,1.9,3.3,2.5,5.5C-181.3,631.9-181,634.5-181,637.6z M-196.9,624.6
			c-1.3,0-2.3,0.3-3.2,0.8c-0.8,0.5-1.5,1.3-2,2.4c-0.5,1.1-0.9,2.4-1.1,4.1c-0.2,1.6-0.3,3.6-0.3,5.8c0,2.1,0.1,4,0.3,5.6
			c0.2,1.6,0.6,3,1.1,4.1s1.2,2,2,2.5c0.9,0.6,1.9,0.9,3.2,0.9c2.1,0,3.6-1.1,4.6-3.4s1.4-5.5,1.4-9.8c0-4.4-0.5-7.6-1.4-9.8
			C-193.2,625.6-194.7,624.6-196.9,624.6z"/>
		<path id="XMLID_475_" class="st0" d="M-159.5,623.7c-0.8,0-1.5,0.2-2,0.5c-0.6,0.3-1,0.8-1.3,1.4s-0.6,1.3-0.7,2.2
			c-0.1,0.8-0.2,1.8-0.2,2.8c-2.9,0-5-0.3-6.5-1c-1.4-0.6-2.2-1.8-2.2-3.3c0-1.2,0.3-2.2,1-3c0.7-0.8,1.6-1.5,2.8-2
			c1.2-0.5,2.6-0.9,4.2-1.1c1.6-0.2,3.3-0.4,5.1-0.4c2.3,0,4.2,0.2,5.9,0.6c1.7,0.4,3.1,1,4.2,1.9c1.1,0.9,2,2,2.5,3.4
			c0.6,1.4,0.8,3.1,0.8,5.1v16.3c0,0.9,0.1,1.6,0.2,2.2c0.1,0.6,0.3,1,0.6,1.4c0.3,0.3,0.7,0.6,1.2,0.7c0.5,0.1,1.1,0.2,1.8,0.2h0.3
			v3.4h-11.8l-1.3-4.4h-0.6c-0.7,0.9-1.4,1.6-2,2.2c-0.6,0.6-1.3,1.2-2,1.6s-1.5,0.7-2.4,0.9c-0.9,0.2-1.9,0.3-3.1,0.3
			c-1.4,0-2.7-0.2-4-0.6c-1.2-0.4-2.3-1.1-3.2-1.9c-0.9-0.8-1.6-2-2.1-3.3c-0.5-1.3-0.8-2.8-0.8-4.6c0-3.5,1.2-6.1,3.6-7.7
			c2.4-1.7,6-2.6,10.8-2.7l5.3-0.2v-3.5c0-1.1,0-2-0.1-2.9c-0.1-0.9-0.3-1.7-0.5-2.3c-0.3-0.6-0.7-1.1-1.2-1.5
			C-157.7,624-158.6,623.7-159.5,623.7z M-165.2,645.4c0,1.8,0.3,3.2,0.9,4.1c0.6,0.9,1.5,1.4,2.8,1.4c0.9,0,1.7-0.2,2.5-0.6
			s1.4-0.9,1.9-1.6c0.5-0.7,0.9-1.6,1.2-2.6c0.3-1,0.4-2.1,0.4-3.4v-4.8l-2.9,0.2c-1.3,0.1-2.3,0.3-3.2,0.6
			c-0.9,0.3-1.6,0.8-2.1,1.4c-0.5,0.6-0.9,1.3-1.1,2.2C-165.1,643.2-165.2,644.2-165.2,645.4z"/>
		<path id="XMLID_473_" class="st0" d="M-112.8,654.9v-21.1c0-1.4-0.1-2.6-0.3-3.7c-0.2-1.1-0.5-2-0.9-2.7s-0.9-1.3-1.6-1.7
			s-1.5-0.6-2.4-0.6c-1.1,0-2,0.3-2.7,0.8s-1.3,1.3-1.7,2.2c-0.4,0.9-0.7,2-0.9,3.2c-0.2,1.2-0.3,2.5-0.3,3.8v12.2
			c0,0.9,0.1,1.6,0.3,2.2c0.2,0.5,0.5,1,0.9,1.3c0.4,0.3,0.9,0.5,1.5,0.6s1.2,0.1,1.9,0.1h0.2v3.4h-19.5v-3.4h0.1c0.7,0,1.4,0,2-0.1
			c0.6-0.1,1.1-0.3,1.6-0.6c0.4-0.3,0.8-0.8,1-1.3c0.3-0.6,0.4-1.4,0.4-2.3v-33.6c0-0.9-0.2-1.5-0.5-2c-0.3-0.5-0.7-0.9-1.1-1.2
			c-0.5-0.3-1-0.5-1.5-0.5c-0.5-0.1-1-0.1-1.5-0.1h-0.8v-3.5h15v10.5c0,0.8,0,1.7-0.1,2.7s-0.1,1.8-0.2,2.7c-0.1,1-0.2,1.9-0.3,2.8
			h0.6c0.6-1.2,1.3-2.2,2-2.8c0.7-0.7,1.5-1.2,2.3-1.5s1.7-0.6,2.6-0.7s1.9-0.1,2.9-0.1c1.6,0,3.1,0.2,4.4,0.7s2.4,1.2,3.3,2.2
			s1.6,2.3,2.1,3.8c0.5,1.6,0.7,3.4,0.7,5.6v14.9c0,1,0.1,1.8,0.3,2.4c0.2,0.6,0.4,1,0.8,1.4c0.4,0.3,0.8,0.5,1.3,0.6
			s1.2,0.2,1.9,0.2h0.2v3.4h-14V654.9z"/>
		<path id="XMLID_470_" class="st0" d="M-78.4,623.7c-0.8,0-1.5,0.2-2,0.5c-0.6,0.3-1,0.8-1.3,1.4s-0.6,1.3-0.7,2.2
			c-0.1,0.8-0.2,1.8-0.2,2.8c-2.9,0-5-0.3-6.5-1c-1.4-0.6-2.2-1.8-2.2-3.3c0-1.2,0.3-2.2,1-3s1.6-1.5,2.8-2s2.6-0.9,4.2-1.1
			c1.6-0.2,3.3-0.4,5.1-0.4c2.3,0,4.2,0.2,5.9,0.6c1.7,0.4,3.1,1,4.2,1.9c1.1,0.9,2,2,2.5,3.4c0.6,1.4,0.8,3.1,0.8,5.1v16.3
			c0,0.9,0.1,1.6,0.2,2.2s0.3,1,0.6,1.4c0.3,0.3,0.7,0.6,1.2,0.7c0.5,0.1,1.1,0.2,1.8,0.2h0.3v3.4h-11.9l-1.3-4.4h-0.6
			c-0.7,0.9-1.4,1.6-2,2.2c-0.6,0.6-1.3,1.2-2,1.6s-1.5,0.7-2.4,0.9c-0.9,0.2-1.9,0.3-3.1,0.3c-1.4,0-2.7-0.2-4-0.6
			c-1.2-0.4-2.3-1.1-3.2-1.9c-0.9-0.8-1.6-2-2.1-3.3c-0.5-1.3-0.8-2.8-0.8-4.6c0-3.5,1.2-6.1,3.6-7.7c2.4-1.7,6-2.6,10.8-2.7
			l5.3-0.2v-3.5c0-1.1,0-2-0.1-2.9c-0.1-0.9-0.3-1.7-0.5-2.3c-0.3-0.6-0.7-1.1-1.2-1.5C-76.7,624-77.5,623.7-78.4,623.7z M-84,645.4
			c0,1.8,0.3,3.2,0.9,4.1c0.6,0.9,1.5,1.4,2.8,1.4c0.9,0,1.7-0.2,2.5-0.6s1.4-0.9,1.9-1.6c0.5-0.7,0.9-1.6,1.2-2.6s0.4-2.1,0.4-3.4
			v-4.8l-2.9,0.2c-1.3,0.1-2.3,0.3-3.2,0.6s-1.6,0.8-2.1,1.4c-0.5,0.6-0.9,1.3-1.1,2.2C-83.9,643.2-84,644.2-84,645.4z"/>
		<path id="XMLID_467_" class="st0" d="M-56.6,651.5c0.5,0,1,0,1.5-0.1c0.5-0.1,1-0.3,1.5-0.6s0.8-0.7,1.1-1.3
			c0.3-0.5,0.5-1.3,0.5-2.2v-19.5c0-0.9-0.2-1.5-0.5-2s-0.7-0.9-1.1-1.2c-0.5-0.3-1-0.5-1.5-0.5c-0.5-0.1-1-0.1-1.5-0.1h-0.8v-3.4
			h15v26.8c0,0.9,0.2,1.6,0.5,2.2c0.3,0.5,0.7,1,1.1,1.3s0.9,0.5,1.5,0.6c0.5,0.1,1,0.1,1.5,0.1h0.8v3.4h-20.4v-3.4L-56.6,651.5
			L-56.6,651.5z M-53,610.2c0-0.8,0.1-1.5,0.4-2.1c0.3-0.6,0.7-1.1,1.2-1.4c0.5-0.4,1.1-0.6,1.7-0.8c0.7-0.2,1.4-0.3,2.1-0.3
			c0.7,0,1.4,0.1,2.1,0.3c0.7,0.2,1.3,0.4,1.8,0.8c0.5,0.4,0.9,0.8,1.2,1.4s0.5,1.3,0.5,2.1c0,0.8-0.2,1.5-0.5,2.1s-0.7,1.1-1.2,1.4
			c-0.5,0.4-1.1,0.7-1.8,0.8s-1.4,0.3-2.1,0.3c-0.8,0-1.5-0.1-2.1-0.3c-0.7-0.2-1.2-0.5-1.7-0.8c-0.5-0.4-0.9-0.9-1.2-1.4
			C-52.8,611.7-53,611-53,610.2z"/>
		<path id="XMLID_465_" class="st0" d="M-22.5,655.6c-1.6,0-3.1-0.1-4.4-0.4c-1.3-0.3-2.4-0.7-3.3-1.3s-1.6-1.3-2.1-2.1
			s-0.8-1.8-0.8-3c0-0.9,0.1-1.6,0.4-2.1c0.3-0.6,0.6-1,1-1.4c0.4-0.3,0.8-0.6,1.3-0.7s0.9-0.2,1.3-0.2c0,1.1,0.1,2.2,0.3,3.2
			s0.6,1.8,1.2,2.6c0.5,0.7,1.3,1.3,2.1,1.8c0.9,0.4,2,0.6,3.3,0.6c1.1,0,2.2-0.1,3-0.4c0.8-0.3,1.6-0.7,2.2-1.2
			c0.6-0.5,1-1.1,1.4-1.8c0.3-0.7,0.5-1.5,0.5-2.4c0-0.8-0.1-1.5-0.4-2c-0.2-0.6-0.7-1.1-1.3-1.6s-1.4-1-2.4-1.5s-2.3-1.1-3.8-1.8
			c-1.6-0.7-3.1-1.4-4.3-2.1s-2.2-1.4-3-2.2s-1.4-1.7-1.8-2.7s-0.6-2.2-0.6-3.6c0-1.5,0.3-2.8,0.9-3.9c0.6-1.1,1.4-2.1,2.5-2.8
			c1.1-0.8,2.3-1.3,3.8-1.7c1.5-0.4,3.1-0.6,4.9-0.6c1.5,0,2.9,0.2,4,0.5c1.2,0.3,2.1,0.7,2.9,1.3c0.8,0.5,1.4,1.2,1.8,1.9
			s0.6,1.5,0.6,2.3c0,1.2-0.4,2.1-1.2,2.8s-1.9,1-3.4,1c0-2.1-0.4-3.8-1.3-5c-0.9-1.2-2.3-1.8-4.2-1.8c-1.1,0-2,0.1-2.8,0.4
			c-0.8,0.3-1.4,0.6-1.9,1.1s-0.9,1-1.1,1.6c-0.2,0.6-0.3,1.3-0.3,2.1s0.1,1.5,0.4,2.1c0.3,0.6,0.8,1.1,1.4,1.6
			c0.6,0.5,1.5,1,2.5,1.5s2.2,1,3.6,1.6c1.7,0.7,3.1,1.4,4.3,2.1s2.2,1.4,3,2.3c0.8,0.8,1.4,1.7,1.7,2.8c0.4,1,0.6,2.2,0.6,3.5
			c0,1.7-0.3,3.1-0.9,4.4c-0.6,1.3-1.5,2.3-2.6,3.1s-2.4,1.5-4,1.9C-19.1,655.8-20.6,655.6-22.5,655.6z"/>
		<path id="XMLID_463_" class="st0" d="M10,652.2c0.8,0,1.5,0,2.1-0.1s1.3-0.2,2-0.3v2.8c-0.3,0.1-0.6,0.3-1.1,0.4
			c-0.4,0.1-0.9,0.2-1.4,0.3c-0.5,0.1-1,0.2-1.6,0.2c-0.6,0.1-1.1,0.1-1.6,0.1c-1.6,0-3-0.2-4.2-0.5s-2.1-0.9-2.9-1.7
			c-0.8-0.8-1.3-1.8-1.7-3.1c-0.4-1.3-0.5-2.8-0.5-4.7v-21.4h-4.9v-2.6c0.8,0,1.6-0.2,2.5-0.5c0.9-0.3,1.7-0.8,2.5-1.6
			c0.7-0.8,1.3-1.7,1.8-2.8c0.4-1.1,0.8-2.5,1.2-4.1h2.9v7.9h8.4v3.7H5.1v21.6c0,2.2,0.4,3.8,1.3,4.8C7.3,651.7,8.5,652.2,10,652.2z
			"/>
		<path id="XMLID_461_" class="st0" d="M49.3,648c0,0.9,0.1,1.7,0.4,2.3c0.3,0.6,0.7,1,1.1,1.3c0.5,0.3,1,0.5,1.7,0.6
			c0.7,0.1,1.3,0.1,2,0.1h0.2v2.7H44.5l-0.8-5.2h-0.3c-0.6,1.2-1.4,2.2-2.1,2.9c-0.8,0.8-1.6,1.3-2.5,1.8c-0.9,0.4-1.8,0.7-2.8,0.9
			s-2,0.2-3,0.2c-1.7,0-3.2-0.2-4.5-0.7s-2.4-1.2-3.3-2.3c-0.9-1-1.6-2.3-2-3.9c-0.4-1.6-0.7-3.5-0.7-5.7v-15.4
			c0-0.9-0.1-1.7-0.4-2.3c-0.3-0.6-0.7-1-1.1-1.3c-0.5-0.3-1-0.5-1.7-0.6c-0.6-0.1-1.3-0.2-2-0.2H17v-2.7h11.5v22.1
			c0,1.4,0.1,2.6,0.3,3.7s0.6,2,1.1,2.8s1.2,1.3,2.1,1.7c0.9,0.4,1.9,0.6,3.2,0.6c1.4,0,2.6-0.3,3.6-0.8s1.8-1.2,2.5-2.1
			s1.1-2,1.5-3.3c0.3-1.3,0.5-2.7,0.5-4.2v-13.2c0-1-0.1-1.8-0.4-2.4c-0.3-0.6-0.7-1.1-1.1-1.4c-0.5-0.3-1-0.5-1.7-0.6
			c-0.7-0.1-1.3-0.2-2-0.2h-0.2v-2.7h11.4V648z"/>
		<path id="XMLID_458_" class="st0" d="M88.6,647.9c0,0.9,0.1,1.7,0.4,2.3c0.3,0.6,0.7,1,1.1,1.3c0.5,0.3,1,0.5,1.7,0.6
			c0.6,0.1,1.3,0.1,2,0.1h0.5v2.7H83.4l-0.7-5.8h-0.3c-0.5,1-1,1.9-1.6,2.6c-0.6,0.8-1.3,1.4-2.1,2c-0.8,0.6-1.7,1-2.7,1.3
			s-2.1,0.5-3.4,0.5c-2.1,0-4-0.3-5.6-1s-3-1.8-4.1-3.2c-1.1-1.4-1.9-3.3-2.5-5.5s-0.8-4.9-0.8-7.9c0-3.1,0.3-5.8,0.8-8
			c0.6-2.3,1.4-4.1,2.5-5.6s2.5-2.5,4.1-3.2s3.5-1,5.6-1c1.2,0,2.3,0.1,3.3,0.4c1,0.3,1.9,0.7,2.7,1.2c0.8,0.5,1.5,1.1,2.1,1.8
			c0.6,0.7,1.2,1.4,1.6,2.3h0.4c-0.1-1-0.1-2-0.2-2.9c0-0.8-0.1-1.6-0.1-2.4c0-0.8-0.1-1.4-0.1-1.7v-5.5c0-0.9-0.1-1.7-0.4-2.3
			s-0.7-1-1.1-1.3c-0.5-0.3-1-0.5-1.7-0.6c-0.6-0.1-1.3-0.1-2-0.1h-0.5v-2.7h11.8v41.6H88.6z M73.9,651.5c1.7,0,3.1-0.3,4.2-0.8
			c1.1-0.6,2-1.4,2.7-2.5s1.2-2.5,1.4-4.3c0.3-1.7,0.4-3.7,0.4-6c0-2.2-0.1-4.2-0.4-5.9c-0.3-1.7-0.8-3.1-1.4-4.3
			c-0.7-1.2-1.6-2-2.7-2.6s-2.5-0.9-4.2-0.9c-1.4,0-2.6,0.3-3.6,0.9s-1.8,1.5-2.5,2.7c-0.6,1.2-1.1,2.6-1.4,4.3S66,635.8,66,638
			c0,4.5,0.6,7.9,1.8,10.2C69,650.3,71,651.5,73.9,651.5z"/>
		<path id="XMLID_456_" class="st0" d="M131.7,620.6v2.7h-0.2c-0.6,0-1.2,0.1-1.6,0.2s-0.9,0.4-1.2,0.8c-0.4,0.4-0.7,0.9-1,1.5
			s-0.7,1.5-1,2.5l-9.7,26.9c-0.8,2.1-1.5,3.9-2.1,5.4c-0.7,1.6-1.4,2.9-2.1,4s-1.5,2-2.4,2.8c-0.9,0.7-1.9,1.3-3,1.8
			c-1.1,0.4-2.4,0.7-3.8,0.9c-1.4,0.2-3.1,0.3-5,0.3H98v-3c2.2,0,4-0.3,5.6-1c1.6-0.6,2.9-1.5,4.1-2.7c1.1-1.1,2.1-2.5,2.8-4
			s1.4-3.2,1.9-5l-11.9-28c-0.3-0.7-0.6-1.2-0.8-1.6c-0.3-0.4-0.6-0.8-0.9-1c-0.3-0.3-0.7-0.5-1.2-0.6c-0.5-0.1-1-0.2-1.6-0.2h-0.2
			v-2.7h15.4v2.7H111c-1.3,0-2.3,0.3-2.9,0.8s-1,1.3-1,2.3c0,0.4,0,0.7,0.1,1.1s0.2,0.8,0.4,1.3l4.7,11.4c0.3,0.7,0.6,1.5,0.9,2.4
			s0.6,1.7,0.9,2.6c0.3,0.8,0.5,1.6,0.8,2.4s0.4,1.4,0.5,1.9h0.2c0.2-0.9,0.5-2.1,1-3.4c0.4-1.3,0.9-2.8,1.4-4.3l4.3-12.5
			c0.2-0.5,0.3-1,0.4-1.5s0.1-0.9,0.1-1.3c0-1.1-0.3-1.9-1-2.4s-1.8-0.8-3.2-0.8h-0.2v-2.7L131.7,620.6L131.7,620.6z"/>
		<path id="XMLID_452_" class="st0" d="M167.3,621.8c0,0.5-0.1,0.9-0.2,1.4c-0.1,0.4-0.4,0.8-0.7,1.2c-0.3,0.3-0.8,0.6-1.4,0.8
			c-0.6,0.2-1.3,0.3-2.2,0.3c0-0.4-0.1-0.8-0.2-1.2s-0.3-0.6-0.5-0.8c-0.2-0.2-0.5-0.4-0.8-0.5c-0.3-0.1-0.6-0.2-0.9-0.2
			c-0.4,0-0.7,0.1-1.1,0.2c-0.4,0.1-0.7,0.3-1,0.5c0.4,0.5,0.8,1,1.2,1.6s0.7,1.3,1,2s0.5,1.4,0.7,2.2s0.3,1.5,0.3,2.3
			c0,1.6-0.3,3.1-0.8,4.5s-1.3,2.5-2.4,3.5s-2.4,1.8-4,2.3c-1.6,0.6-3.6,0.8-5.8,0.8c-0.2,0-0.5,0-0.9,0s-0.7,0-1.1,0s-0.7,0-1-0.1
			c-0.3-0.1-0.6-0.1-0.7-0.1c-0.3,0.1-0.5,0.3-0.8,0.5s-0.5,0.5-0.8,0.7c-0.2,0.3-0.4,0.6-0.5,0.9c-0.1,0.3-0.2,0.7-0.2,1.1
			c0,0.7,0.3,1.2,0.8,1.6c0.6,0.3,1.3,0.5,2.2,0.5h7.8c2.1,0,4,0.2,5.5,0.7c1.5,0.4,2.8,1.1,3.8,1.9s1.8,1.9,2.2,3.1
			c0.5,1.2,0.7,2.6,0.7,4.1c0,2-0.4,3.7-1.1,5.3c-0.8,1.6-1.9,2.9-3.4,3.9c-1.5,1.1-3.5,1.9-5.8,2.5c-2.3,0.6-5.1,0.9-8.2,0.9
			c-5,0-8.8-0.8-11.3-2.3s-3.7-3.7-3.7-6.6c0-2.3,0.7-4.1,2.2-5.3c1.5-1.2,3.6-1.9,6.4-2.2c-0.6-0.2-1.2-0.5-1.7-0.8
			c-0.6-0.3-1.1-0.7-1.5-1.2s-0.8-1-1.1-1.6c-0.3-0.6-0.4-1.3-0.4-2s0.1-1.4,0.4-2s0.7-1.2,1.2-1.7c0.5-0.6,1.1-1.1,1.8-1.6
			c0.7-0.5,1.5-1,2.3-1.5c-0.9-0.3-1.8-0.8-2.6-1.4c-0.8-0.6-1.5-1.3-2.1-2.1c-0.6-0.8-1-1.8-1.4-2.8c-0.3-1.1-0.5-2.2-0.5-3.5
			c0-3.8,1.1-6.7,3.3-8.7c2.2-2.1,5.6-3.1,10.1-3.1c1.5,0,2.9,0.2,4.2,0.6c1.3,0.4,2.4,0.9,3.4,1.4c0.4-0.4,0.7-0.8,1.2-1.2
			c0.4-0.4,0.9-0.8,1.5-1.2c0.5-0.4,1.1-0.6,1.8-0.9c0.7-0.2,1.4-0.3,2.2-0.3c0.8,0,1.4,0.1,2,0.3c0.6,0.2,1.1,0.5,1.4,0.8
			c0.4,0.3,0.7,0.7,0.9,1.2C167.2,620.8,167.3,621.3,167.3,621.8z M139.4,661.3c0,1.8,0.6,3.1,1.9,3.9c1.3,0.8,3.2,1.3,5.6,1.3
			c3.8,0,6.5-0.5,8.2-1.6s2.6-2.7,2.6-4.8c0-1.4-0.4-2.3-1.3-2.8s-2.1-0.8-3.9-0.8h-7.4c-0.6,0-1.3,0.1-2,0.2s-1.3,0.3-1.8,0.7
			c-0.6,0.4-1,0.8-1.4,1.5C139.6,659.4,139.4,660.2,139.4,661.3z M143.7,631.6c0,1.1,0.1,2.1,0.2,3s0.4,1.7,0.8,2.3s0.8,1.1,1.4,1.5
			s1.3,0.5,2.1,0.5c0.9,0,1.6-0.2,2.1-0.5c0.6-0.3,1-0.8,1.3-1.5s0.6-1.5,0.7-2.4c0.1-0.9,0.2-2,0.2-3.1c0-1.2-0.1-2.3-0.2-3.2
			c-0.1-1-0.4-1.8-0.7-2.5c-0.3-0.7-0.8-1.2-1.4-1.6c-0.6-0.4-1.3-0.6-2.1-0.6c-0.8,0-1.5,0.2-2.1,0.6c-0.6,0.4-1,0.9-1.4,1.7
			c-0.3,0.7-0.6,1.6-0.7,2.5C143.8,629.4,143.7,630.5,143.7,631.6z"/>
		<path id="XMLID_450_" class="st0" d="M190.3,654.9h-21.4v-3.4h0.2c0.7,0,1.4-0.1,2-0.2s1.1-0.3,1.6-0.6c0.4-0.3,0.8-0.8,1-1.4
			s0.4-1.4,0.4-2.4v-18.6c0-0.9-0.1-1.7-0.3-2.3c-0.2-0.6-0.5-1-0.9-1.3s-0.9-0.5-1.5-0.6c-0.6-0.1-1.2-0.1-1.9-0.1h-0.2v-3.4h13
			l1.3,5h0.3c0.4-1,0.9-1.8,1.4-2.5c0.5-0.7,1.1-1.3,1.8-1.8c0.7-0.5,1.5-0.8,2.5-1.1c0.9-0.2,2.1-0.4,3.4-0.4
			c2.5,0,4.4,0.4,5.6,1.3c1.2,0.9,1.8,2.2,1.8,3.9c0,2-0.7,3.5-2.1,4.6c-1.4,1.1-3.4,1.6-6,1.6c0-0.9,0-1.6-0.1-2.3
			s-0.3-1.2-0.5-1.7c-0.2-0.4-0.6-0.8-1-1s-0.9-0.3-1.5-0.3c-0.8,0-1.4,0.2-1.9,0.6c-0.5,0.4-1,0.9-1.4,1.5c-0.4,0.6-0.7,1.3-0.9,2
			c-0.2,0.8-0.4,1.5-0.6,2.3c-0.1,0.8-0.2,1.5-0.3,2.2c0,0.7-0.1,1.3-0.1,1.8v11.1c0,0.9,0.1,1.7,0.3,2.3c0.2,0.6,0.5,1,0.9,1.3
			s0.9,0.5,1.4,0.6c0.5,0.1,1.1,0.1,1.8,0.1h2.1v3.2H190.3z"/>
		<path id="XMLID_447_" class="st0" d="M237.4,637.6c0,6-1.4,10.5-4.2,13.5c-2.8,3-7,4.4-12.5,4.4c-2.6,0-4.9-0.4-6.9-1.1
			s-3.8-1.9-5.2-3.3s-2.5-3.3-3.3-5.6c-0.8-2.3-1.1-4.9-1.1-7.9c0-6,1.4-10.5,4.2-13.5c2.8-2.9,7-4.4,12.5-4.4
			c2.6,0,4.9,0.4,6.9,1.1s3.8,1.8,5.2,3.3c1.4,1.5,2.5,3.3,3.3,5.6C237,632,237.4,634.6,237.4,637.6z M214.1,637.6
			c0,2.3,0.1,4.3,0.4,6c0.2,1.7,0.6,3.2,1.2,4.3c0.5,1.2,1.2,2,2.1,2.6c0.9,0.6,1.9,0.9,3.1,0.9s2.3-0.3,3.1-0.9
			c0.8-0.6,1.5-1.5,2.1-2.6c0.5-1.2,0.9-2.6,1.1-4.3s0.3-3.7,0.3-6s-0.1-4.3-0.4-6c-0.2-1.7-0.6-3.2-1.2-4.3c-0.5-1.1-1.2-2-2.1-2.6
			c-0.9-0.6-1.9-0.9-3.1-0.9s-2.3,0.3-3.1,0.9c-0.9,0.6-1.5,1.4-2.1,2.6c-0.5,1.1-0.9,2.6-1.1,4.3S214.1,635.3,214.1,637.6z"/>
		<path id="XMLID_445_" class="st0" d="M268.7,654.9l-1.4-4.5H267c-0.6,1.1-1.3,2-2.1,2.7c-0.8,0.7-1.6,1.2-2.4,1.6
			c-0.9,0.4-1.8,0.6-2.7,0.7c-0.9,0.1-1.9,0.2-2.9,0.2c-3.3,0-5.9-1-7.7-3.1c-1.8-2.1-2.7-5.3-2.7-9.6v-14.4c0-0.9-0.1-1.7-0.3-2.3
			s-0.4-1-0.8-1.4c-0.4-0.3-0.8-0.6-1.4-0.7s-1.2-0.2-2-0.2l0,0v-3.4h14.2V641c0,1.4,0.1,2.6,0.2,3.7c0.2,1.1,0.4,2,0.8,2.8
			c0.4,0.8,0.9,1.4,1.5,1.8c0.6,0.4,1.4,0.6,2.3,0.6c1,0,1.9-0.2,2.6-0.7c0.7-0.4,1.3-1.1,1.8-1.9c0.5-0.8,0.8-1.9,1-3.1
			s0.3-2.5,0.3-4.1v-12.3c0-0.9-0.1-1.7-0.4-2.2s-0.6-1-1-1.2c-0.4-0.2-0.9-0.5-1.5-0.5c-0.6-0.1-1.2-0.1-1.8-0.1h-0.2v-3.4h14.5
			v26.9c0,0.9,0.1,1.7,0.3,2.2c0.2,0.5,0.5,0.9,0.9,1.2s0.8,0.4,1.3,0.5s1.1,0.1,1.7,0.1h0.5v3.4h-12.3V654.9z"/>
		<path id="XMLID_442_" class="st0" d="M284.7,666.9c0.5,0,1,0,1.5-0.1s1-0.3,1.5-0.6c0.4-0.3,0.8-0.7,1.1-1.3
			c0.3-0.5,0.5-1.3,0.5-2.2v-34.3c0-1-0.1-1.8-0.3-2.3c-0.2-0.6-0.5-1-0.9-1.3c-0.4-0.3-0.8-0.5-1.4-0.6c-0.5-0.1-1.1-0.2-1.7-0.2
			h-0.4v-3.4H297l1.2,5h0.3c0.5-0.8,1-1.6,1.6-2.3c0.6-0.7,1.3-1.3,2.1-1.8s1.7-0.9,2.7-1.2c1-0.3,2.1-0.4,3.3-0.4
			c2.1,0,4,0.3,5.6,1s3,1.8,4.1,3.3s1.9,3.3,2.5,5.6c0.6,2.3,0.9,4.9,0.9,8c0,3.1-0.3,5.8-0.8,8c-0.6,2.2-1.4,4.1-2.5,5.6
			s-2.4,2.5-4,3.2s-3.4,1-5.5,1c-2.4,0-4.4-0.5-5.9-1.4c-1.5-0.9-2.7-2.2-3.7-3.7h-0.4c0.1,1,0.2,1.9,0.3,2.9
			c0.1,0.8,0.1,1.6,0.2,2.5s0.1,1.7,0.1,2.3v4.4c0,0.9,0.2,1.6,0.5,2.2c0.3,0.5,0.7,1,1.1,1.3c0.4,0.3,0.9,0.5,1.5,0.6
			c0.5,0.1,1,0.1,1.5,0.1h1.4v3.4h-21v-3.4L284.7,666.9L284.7,666.9z M305.5,651c2.1,0,3.7-1.1,4.6-3.2c0.9-2.2,1.4-5.4,1.4-9.8
			c0-4.3-0.5-7.5-1.4-9.8s-2.4-3.4-4.6-3.4c-1.3,0-2.3,0.3-3.2,0.9s-1.5,1.4-2,2.5s-0.9,2.5-1.1,4.1c-0.2,1.6-0.3,3.5-0.3,5.6
			c0,2.2,0.1,4.1,0.3,5.8c0.2,1.6,0.6,3,1.1,4.1c0.5,1.1,1.2,1.9,2,2.4C303.2,650.7,304.2,651,305.5,651z"/>
	</g>
</g>
<g>
	<g id="XMLID_27_">
		<path id="XMLID_225_" class="st1" d="M18.9,523.8l-7.4-42.6l-42.8-0.3l21.2-36.2L-43,417.4l40.8-14.8l-7.4-42.6l40.3,14.8
			l21.4-36.7l21.2,37l39.8-14.5l-7.4,41.8l40,14.8l-32.4,27.3l21.4,37l-42.8-0.3l-7.4,42.3l-32.9-27.3L18.9,523.8z M-30,480.2
			l42.1,0.3l7.4,41.8l32.1-27l32.4,27l7.4-41.6l42.1,0.3l-20.9-36.5l31.9-26.8l-39.5-14.5l7.1-41.3l-39.3,14.3l-20.9-36.2
			l-21.2,36.2l-39.8-14.5l7.4,41.8l-40,14.5l32.4,27L-30,480.2z M83.2,520.4l-30.6-25.8l16.8-14h20.9L83.2,520.4z M53.6,494.7
			l29.1,24.2l6.6-37.5H69.4L53.6,494.7z M20.2,520.4l-6.9-39.8H34l17.1,14.3L20.2,520.4z M14.1,481.2l6.6,37.7l28.8-24.2l-16.1-13.5
			H14.1z M51.6,493.9l-16.1-13.5l32.1,0.3L51.6,493.9z M37.6,481.2l14,11.7l13.8-11.7H37.6z M131.6,479.9l-40-0.3l3.6-20.7
			l16.6-13.8L131.6,479.9z M92.4,478.9l38,0.3l-18.9-32.9l-15.6,13L92.4,478.9z M90.3,479.6H70.4L93.6,460L90.3,479.6z M72.5,478.9
			h17.3l3.1-17.1L72.5,478.9z M68.9,479.6L68.9,479.6l-34.7-0.3L9.5,458.7l-5.9-33.9l16.8-28.6l31.9-11.5l0,0l31.4,11.5l16.6,28.6
			l-5.9,33.4L68.9,479.6z M34.5,478.6l34.2,0.3L93.4,458l5.9-32.9l-16.3-28.3l-30.9-11.5l-31.4,11.5l-16.6,28L10,458L34.5,478.6z
			 M32.7,479.4H13.3L10,460.5L32.7,479.4z M13.8,478.6h16.8L11,462.3L13.8,478.6z M12.1,479.4l-40-0.3l19.9-33.9l16.8,14L12.1,479.4
			z M-26.7,478.4l38,0.3L8,459.8l-15.8-13.3L-26.7,478.4z M8.2,457.7l-16.1-13.3l10.5-17.8L8.2,457.7z M-6.8,444.2l14,11.7
			l-4.8-27.3L-6.8,444.2z M95.4,457.2l5.4-30.9l10.2,17.8L95.4,457.2z M101.3,428.7l-4.8,26.8l13.5-11.5L101.3,428.7z M-8.6,443.7
			l-30.9-25.8l38.2-13.8l3.6,20.7L-8.6,443.7z M-37.9,418.2l29.1,24.2l10.5-17.8l-3.3-19.4L-37.9,418.2z M112,443.4l-10.7-18.6
			l3.6-20.7l37.5,13.8L112,443.4z M101.8,424.6l10.2,17.6l28.8-24.2l-35.4-13L101.8,424.6z M100.3,423.3L85,396.8l18.6,6.9
			L100.3,423.3z M86.8,398.3l13.3,22.9l3.1-16.8L86.8,398.3z M3.4,423.3l-3.3-19.6l18.9-6.9L3.4,423.3z M0.8,404.2l3.1,17.1
			l13.3-22.9L0.8,404.2z M103.8,402.6l-19.6-7.1l-10.7-18.4l37.2-13.5L103.8,402.6z M84.7,395l18.6,6.9l6.6-37.2l-35.2,12.7
			L84.7,395z M-0.2,402.6l-6.9-39.8l37.7,14l-11,18.6L-0.2,402.6z M-6.3,364.1l6.6,37.7l18.9-6.9l10.2-17.6L-6.3,364.1z M82.7,395
			l-29.1-10.7l18.9-6.9L82.7,395z M55.9,384.3l25.2,9.2l-8.7-15.3L55.9,384.3z M21.2,395l10.5-17.6l19.1,7.1L21.2,395z M31.9,378.2
			L23,393.5l25.5-9.2L31.9,378.2z M52.1,383.8l-20.1-7.4L52.1,342L72,376.4L52.1,383.8z M33.2,375.9l18.9,6.9l18.9-6.9l-18.9-32.6
			L33.2,375.9z"/>
	</g>
	<g id="XMLID_3_">
		<circle id="XMLID_23_" class="st2" cx="20" cy="521.5" r="9.9"/>
		<circle id="XMLID_22_" class="st3" cx="83.7" cy="521.5" r="9.9"/>
		<circle id="XMLID_21_" class="st4" cx="132.7" cy="480.4" r="9.9"/>
		<circle id="XMLID_20_" class="st2" cx="143.4" cy="417.9" r="9.9"/>
		<circle id="XMLID_19_" class="st3" cx="111.5" cy="362.6" r="9.9"/>
		<circle id="XMLID_11_" class="st4" cx="52.3" cy="340.9" r="9.9"/>
		<circle id="XMLID_9_" class="st2" cx="-7.8" cy="362.1" r="9.9"/>
		<circle id="XMLID_7_" class="st3" cx="-40.5" cy="417.9" r="9.9"/>
		<circle id="XMLID_4_" class="st4" cx="-29" cy="480.4" r="9.9"/>
	</g>
</g>
</svg>
