<?xml version="1.0" encoding="utf-8"?>
<!-- Generator: Adobe Illustrator 19.0.0, SVG Export Plug-In . SVG Version: 6.00 Build 0)  -->
<svg version="1.1" id="Capa_1" xmlns="http://www.w3.org/2000/svg" xmlns:xlink="http://www.w3.org/1999/xlink" x="0px" y="0px"
	 viewBox="0 0 550.9 348.7" style="enable-background:new 0 0 550.9 348.7;" xml:space="preserve">
<style type="text/css">
	.st0{fill:#FFE1D2;}
	.st1{fill:#D2FFEE;}
	.st2{fill:#FFE7C0;}
	.st3{fill:#79C3AA;}
	.st4{fill:#F17221;}
	.st5{fill:#EBA72C;}
	.st6{fill:#49392B;}
</style>
<g id="XMLID_2_">
	<g id="XMLID_85_">
		<path id="XMLID_149_" class="st0" d="M307.6,196.1c-0.2,0-0.5-0.1-0.6-0.2L182.9,92.3c-0.3-0.2-0.4-0.6-0.3-0.9
			c0.1-0.4,0.3-0.6,0.6-0.8l152-55.2c0.3-0.1,0.7-0.1,1,0.2c0.3,0.2,0.4,0.6,0.3,0.9l-27.9,158.8c-0.1,0.4-0.3,0.6-0.6,0.8
			C307.9,196.1,307.7,196.1,307.6,196.1z M185.5,91.8l121.4,101.4l27.3-155.4L185.5,91.8z"/>
	</g>
	<g id="XMLID_99_">
		<g id="XMLID_180_">
			<path id="XMLID_181_" class="st1" d="M243.9,196.1c-0.1,0-0.2,0-0.3-0.1c-0.3-0.1-0.6-0.4-0.6-0.8L215,35.9
				c-0.1-0.4,0.1-0.7,0.3-0.9c0.3-0.2,0.7-0.3,1-0.2l151.4,55.8c0.3,0.1,0.6,0.4,0.6,0.8c0.1,0.4-0.1,0.7-0.3,0.9L244.5,195.8
				C244.3,196,244.1,196.1,243.9,196.1z M217.3,37.3l27.3,155.9L365.4,91.8L217.3,37.3z"/>
		</g>
	</g>
	<g id="XMLID_103_">
		<g id="XMLID_184_">
			<path id="XMLID_185_" class="st2" d="M356.6,155H194.9c-0.4,0-0.7,0.1-0.9-0.2s-0.2-0.5,0-0.9l81.4-139.4
				c0.2-0.3,0.5-0.5,0.9-0.5c0,0,0,0,0,0c0.4,0,0.7,0.3,0.9,0.6L357.4,154c0.2,0.3,0.2,0.4,0,0.7S356.9,155,356.6,155z M196.7,153
				h158.2L276.3,16.6L196.7,153z"/>
		</g>
	</g>
	<g id="XMLID_6_">
		<circle id="XMLID_8_" class="st3" cx="243.9" cy="195.1" r="10"/>
		<circle id="XMLID_10_" class="st4" cx="307.6" cy="195.1" r="10"/>
		<circle id="XMLID_12_" class="st5" cx="356.6" cy="154.1" r="10"/>
		<circle id="XMLID_13_" class="st3" cx="367.4" cy="91.5" r="10"/>
		<circle id="XMLID_14_" class="st4" cx="335.5" cy="36.3" r="10"/>
		<circle id="XMLID_15_" class="st5" cx="276.3" cy="14.7" r="10"/>
		<circle id="XMLID_16_" class="st3" cx="216" cy="35.7" r="10"/>
		<circle id="XMLID_17_" class="st4" cx="183.6" cy="91.5" r="10"/>
		<circle id="XMLID_18_" class="st5" cx="194.9" cy="154.1" r="10"/>
	</g>
</g>
<g id="XMLID_5_">
	<g id="XMLID_441_">
		<path id="XMLID_478_" class="st6" d="M43,311.3c0,3.1-0.3,5.8-0.9,8c-0.6,2.3-1.4,4.1-2.5,5.6s-2.5,2.6-4.1,3.3
			c-1.6,0.7-3.5,1-5.6,1c-1.2,0-2.3-0.1-3.3-0.4c-1-0.3-1.9-0.7-2.7-1.2c-0.8-0.5-1.5-1.1-2.1-1.8s-1.2-1.4-1.6-2.3h-0.6l-1.8,5H5.5
			v-3.4H6c0.6,0,1.2-0.1,1.8-0.2c0.6-0.1,1.1-0.3,1.6-0.6c0.5-0.3,0.8-0.8,1.1-1.3s0.4-1.4,0.4-2.3v-33.1c0-0.9-0.1-1.7-0.4-2.2
			c-0.3-0.6-0.6-1-1.1-1.3c-0.5-0.3-1-0.5-1.6-0.6c-0.6-0.1-1.3-0.2-2-0.2H5.5V280h15v10.9c0,0.7,0,1.5-0.1,2.3
			c-0.1,0.9-0.1,1.7-0.2,2.5c-0.1,0.9-0.2,1.9-0.3,2.9h0.4c0.9-1.6,2.1-2.8,3.7-3.8c1.5-0.9,3.5-1.4,5.9-1.4c2.1,0,3.9,0.3,5.5,1
			c1.6,0.7,2.9,1.8,4,3.2c1.1,1.4,1.9,3.3,2.5,5.5C42.7,305.6,43,308.2,43,311.3z M27.1,298.3c-1.3,0-2.3,0.3-3.2,0.8
			c-0.8,0.5-1.5,1.3-2,2.4c-0.5,1.1-0.9,2.4-1.1,4.1c-0.2,1.6-0.3,3.6-0.3,5.8c0,2.1,0.1,4,0.3,5.6c0.2,1.6,0.6,3,1.1,4.1
			c0.5,1.1,1.2,2,2,2.5c0.9,0.6,1.9,0.9,3.2,0.9c2.1,0,3.6-1.1,4.6-3.4s1.4-5.5,1.4-9.8c0-4.4-0.5-7.6-1.4-9.8
			C30.8,299.3,29.3,298.3,27.1,298.3z"/>
		<path id="XMLID_475_" class="st6" d="M64.5,297.4c-0.8,0-1.5,0.2-2,0.5c-0.6,0.3-1,0.8-1.3,1.4c-0.3,0.6-0.6,1.3-0.7,2.2
			c-0.1,0.8-0.2,1.8-0.2,2.8c-2.9,0-5-0.3-6.5-1c-1.4-0.6-2.2-1.8-2.2-3.3c0-1.2,0.3-2.2,1-3s1.6-1.5,2.8-2c1.2-0.5,2.6-0.9,4.2-1.1
			c1.6-0.2,3.3-0.4,5.1-0.4c2.3,0,4.2,0.2,5.9,0.6c1.7,0.4,3.1,1,4.2,1.9c1.1,0.9,2,2,2.5,3.4c0.6,1.4,0.8,3.1,0.8,5.1v16.3
			c0,0.9,0.1,1.6,0.2,2.2s0.3,1,0.6,1.4c0.3,0.3,0.7,0.6,1.2,0.7c0.5,0.1,1.1,0.2,1.8,0.2h0.3v3.4H70.4l-1.3-4.4h-0.6
			c-0.7,0.9-1.4,1.6-2,2.2c-0.6,0.6-1.3,1.2-2,1.6c-0.7,0.4-1.5,0.7-2.4,0.9c-0.9,0.2-1.9,0.3-3.1,0.3c-1.4,0-2.7-0.2-4-0.6
			c-1.2-0.4-2.3-1.1-3.2-1.9s-1.6-2-2.1-3.3c-0.5-1.3-0.8-2.8-0.8-4.6c0-3.5,1.2-6.1,3.6-7.7c2.4-1.7,6-2.6,10.8-2.7l5.3-0.2v-3.5
			c0-1.1,0-2-0.1-2.9c-0.1-0.9-0.3-1.7-0.5-2.3c-0.3-0.6-0.7-1.1-1.2-1.5S65.4,297.4,64.5,297.4z M58.8,319.1c0,1.8,0.3,3.2,0.9,4.1
			c0.6,0.9,1.5,1.4,2.8,1.4c0.9,0,1.7-0.2,2.5-0.6s1.4-0.9,1.9-1.6s0.9-1.6,1.2-2.6c0.3-1,0.4-2.1,0.4-3.4v-4.8l-2.9,0.2
			c-1.3,0.1-2.3,0.3-3.2,0.6c-0.9,0.3-1.6,0.8-2.1,1.4c-0.5,0.6-0.9,1.3-1.1,2.2C58.9,316.9,58.8,317.9,58.8,319.1z"/>
		<path id="XMLID_473_" class="st6" d="M111.2,328.6v-21.1c0-1.4-0.1-2.6-0.3-3.7c-0.2-1.1-0.5-2-0.9-2.7c-0.4-0.7-0.9-1.3-1.6-1.7
			c-0.7-0.4-1.5-0.6-2.4-0.6c-1.1,0-2,0.3-2.7,0.8s-1.3,1.3-1.7,2.2c-0.4,0.9-0.7,2-0.9,3.2c-0.2,1.2-0.3,2.5-0.3,3.8v12.2
			c0,0.9,0.1,1.6,0.3,2.2c0.2,0.5,0.5,1,0.9,1.3c0.4,0.3,0.9,0.5,1.5,0.6c0.6,0.1,1.2,0.1,1.9,0.1h0.2v3.4H85.7v-3.4h0.1
			c0.7,0,1.4,0,2-0.1s1.1-0.3,1.6-0.6c0.4-0.3,0.8-0.8,1-1.3c0.3-0.6,0.4-1.4,0.4-2.3v-33.6c0-0.9-0.2-1.5-0.5-2
			c-0.3-0.5-0.7-0.9-1.1-1.2c-0.5-0.3-1-0.5-1.5-0.5c-0.5-0.1-1-0.1-1.5-0.1h-0.8V280h15v10.5c0,0.8,0,1.7-0.1,2.7
			c-0.1,1-0.1,1.8-0.2,2.7c-0.1,1-0.2,1.9-0.3,2.8h0.6c0.6-1.2,1.3-2.2,2-2.8c0.7-0.7,1.5-1.2,2.3-1.5c0.8-0.3,1.7-0.6,2.6-0.7
			s1.9-0.1,2.9-0.1c1.6,0,3.1,0.2,4.4,0.7s2.4,1.2,3.3,2.2s1.6,2.3,2.1,3.8c0.5,1.6,0.7,3.4,0.7,5.6v14.9c0,1,0.1,1.8,0.3,2.4
			c0.2,0.6,0.4,1,0.8,1.4c0.4,0.3,0.8,0.5,1.3,0.6c0.5,0.1,1.2,0.2,1.9,0.2h0.2v3.4H111.2z"/>
		<path id="XMLID_470_" class="st6" d="M145.6,297.4c-0.8,0-1.5,0.2-2,0.5c-0.6,0.3-1,0.8-1.3,1.4c-0.3,0.6-0.6,1.3-0.7,2.2
			c-0.1,0.8-0.2,1.8-0.2,2.8c-2.9,0-5-0.3-6.5-1c-1.4-0.6-2.2-1.8-2.2-3.3c0-1.2,0.3-2.2,1-3s1.6-1.5,2.8-2c1.2-0.5,2.6-0.9,4.2-1.1
			c1.6-0.2,3.3-0.4,5.1-0.4c2.3,0,4.2,0.2,5.9,0.6c1.7,0.4,3.1,1,4.2,1.9c1.1,0.9,2,2,2.5,3.4c0.6,1.4,0.8,3.1,0.8,5.1v16.3
			c0,0.9,0.1,1.6,0.2,2.2s0.3,1,0.6,1.4c0.3,0.3,0.7,0.6,1.2,0.7c0.5,0.1,1.1,0.2,1.8,0.2h0.3v3.4h-11.9l-1.3-4.4h-0.6
			c-0.7,0.9-1.4,1.6-2,2.2c-0.6,0.6-1.3,1.2-2,1.6c-0.7,0.4-1.5,0.7-2.4,0.9c-0.9,0.2-1.9,0.3-3.1,0.3c-1.4,0-2.7-0.2-4-0.6
			c-1.2-0.4-2.3-1.1-3.2-1.9s-1.6-2-2.1-3.3c-0.5-1.3-0.8-2.8-0.8-4.6c0-3.5,1.2-6.1,3.6-7.7c2.4-1.7,6-2.6,10.8-2.7l5.3-0.2v-3.5
			c0-1.1,0-2-0.1-2.9c-0.1-0.9-0.3-1.7-0.5-2.3c-0.3-0.6-0.7-1.1-1.2-1.5S146.5,297.4,145.6,297.4z M140,319.1
			c0,1.8,0.3,3.2,0.9,4.1c0.6,0.9,1.5,1.4,2.8,1.4c0.9,0,1.7-0.2,2.5-0.6s1.4-0.9,1.9-1.6s0.9-1.6,1.2-2.6c0.3-1,0.4-2.1,0.4-3.4
			v-4.8l-2.9,0.2c-1.3,0.1-2.3,0.3-3.2,0.6c-0.9,0.3-1.6,0.8-2.1,1.4c-0.5,0.6-0.9,1.3-1.1,2.2C140.1,316.9,140,317.9,140,319.1z"/>
		<path id="XMLID_467_" class="st6" d="M167.4,325.2c0.5,0,1,0,1.5-0.1s1-0.3,1.5-0.6s0.8-0.7,1.1-1.3c0.3-0.5,0.5-1.3,0.5-2.2
			v-19.5c0-0.9-0.2-1.5-0.5-2c-0.3-0.5-0.7-0.9-1.1-1.2c-0.5-0.3-1-0.5-1.5-0.5c-0.5-0.1-1-0.1-1.5-0.1h-0.8v-3.4h15v26.8
			c0,0.9,0.2,1.6,0.5,2.2c0.3,0.5,0.7,1,1.1,1.3s0.9,0.5,1.5,0.6c0.5,0.1,1,0.1,1.5,0.1h0.8v3.4h-20.4v-3.4H167.4z M171,283.9
			c0-0.8,0.1-1.5,0.4-2.1c0.3-0.6,0.7-1.1,1.2-1.4c0.5-0.4,1.1-0.6,1.7-0.8c0.7-0.2,1.4-0.3,2.1-0.3c0.7,0,1.4,0.1,2.1,0.3
			s1.3,0.4,1.8,0.8s0.9,0.8,1.2,1.4c0.3,0.6,0.5,1.3,0.5,2.1c0,0.8-0.2,1.5-0.5,2.1c-0.3,0.6-0.7,1.1-1.2,1.4
			c-0.5,0.4-1.1,0.7-1.8,0.8s-1.4,0.3-2.1,0.3c-0.8,0-1.5-0.1-2.1-0.3c-0.7-0.2-1.2-0.5-1.7-0.8c-0.5-0.4-0.9-0.9-1.2-1.4
			C171.2,285.4,171,284.7,171,283.9z"/>
		<path id="XMLID_465_" class="st6" d="M201.5,329.3c-1.6,0-3.1-0.1-4.4-0.4c-1.3-0.3-2.4-0.7-3.3-1.3s-1.6-1.3-2.1-2.1
			c-0.5-0.8-0.8-1.8-0.8-3c0-0.9,0.1-1.6,0.4-2.1c0.3-0.6,0.6-1,1-1.4c0.4-0.3,0.8-0.6,1.3-0.7s0.9-0.2,1.3-0.2
			c0,1.1,0.1,2.2,0.3,3.2c0.2,1,0.6,1.8,1.2,2.6c0.5,0.7,1.3,1.3,2.1,1.8c0.9,0.4,2,0.6,3.3,0.6c1.1,0,2.2-0.1,3-0.4
			s1.6-0.7,2.2-1.2c0.6-0.5,1-1.1,1.4-1.8c0.3-0.7,0.5-1.5,0.5-2.4c0-0.8-0.1-1.5-0.4-2c-0.2-0.6-0.7-1.1-1.3-1.6
			c-0.6-0.5-1.4-1-2.4-1.5c-1-0.5-2.3-1.1-3.8-1.8c-1.6-0.7-3.1-1.4-4.3-2.1s-2.2-1.4-3-2.2s-1.4-1.7-1.8-2.7s-0.6-2.2-0.6-3.6
			c0-1.5,0.3-2.8,0.9-3.9c0.6-1.1,1.4-2.1,2.5-2.8c1.1-0.8,2.3-1.3,3.8-1.7c1.5-0.4,3.1-0.6,4.9-0.6c1.5,0,2.9,0.2,4,0.5
			c1.2,0.3,2.1,0.7,2.9,1.3c0.8,0.5,1.4,1.2,1.8,1.9s0.6,1.5,0.6,2.3c0,1.2-0.4,2.1-1.2,2.8c-0.8,0.7-1.9,1-3.4,1
			c0-2.1-0.4-3.8-1.3-5c-0.9-1.2-2.3-1.8-4.2-1.8c-1.1,0-2,0.1-2.8,0.4c-0.8,0.3-1.4,0.6-1.9,1.1c-0.5,0.5-0.9,1-1.1,1.6
			c-0.2,0.6-0.3,1.3-0.3,2.1c0,0.8,0.1,1.5,0.4,2.1c0.3,0.6,0.8,1.1,1.4,1.6c0.6,0.5,1.5,1,2.5,1.5c1,0.5,2.2,1,3.6,1.6
			c1.7,0.7,3.1,1.4,4.3,2.1c1.2,0.7,2.2,1.4,3,2.3c0.8,0.8,1.4,1.7,1.7,2.8c0.4,1,0.6,2.2,0.6,3.5c0,1.7-0.3,3.1-0.9,4.4
			c-0.6,1.3-1.5,2.3-2.6,3.1s-2.4,1.5-4,1.9S203.4,329.3,201.5,329.3z"/>
		<path id="XMLID_463_" class="st6" d="M234,325.9c0.8,0,1.5,0,2.1-0.1s1.3-0.2,2-0.3v2.8c-0.3,0.1-0.6,0.3-1.1,0.4
			c-0.4,0.1-0.9,0.2-1.4,0.3c-0.5,0.1-1,0.2-1.6,0.2c-0.6,0.1-1.1,0.1-1.6,0.1c-1.6,0-3-0.2-4.2-0.5s-2.1-0.9-2.9-1.7
			c-0.8-0.8-1.3-1.8-1.7-3.1c-0.4-1.3-0.5-2.8-0.5-4.7v-21.4h-4.9v-2.6c0.8,0,1.6-0.2,2.5-0.5c0.9-0.3,1.7-0.8,2.5-1.6
			c0.7-0.8,1.3-1.7,1.8-2.8c0.4-1.1,0.8-2.5,1.2-4.1h2.9v7.9h8.4v3.7h-8.4v21.6c0,2.2,0.4,3.8,1.3,4.8
			C231.3,325.4,232.5,325.9,234,325.9z"/>
		<path id="XMLID_461_" class="st6" d="M273.3,321.7c0,0.9,0.1,1.7,0.4,2.3c0.3,0.6,0.7,1,1.1,1.3c0.5,0.3,1,0.5,1.7,0.6
			s1.3,0.1,2,0.1h0.2v2.7h-10.2l-0.8-5.2h-0.3c-0.6,1.2-1.4,2.2-2.1,2.9c-0.8,0.8-1.6,1.3-2.5,1.8c-0.9,0.4-1.8,0.7-2.8,0.9
			c-1,0.2-2,0.2-3,0.2c-1.7,0-3.2-0.2-4.5-0.7s-2.4-1.2-3.3-2.3c-0.9-1-1.6-2.3-2-3.9s-0.7-3.5-0.7-5.7v-15.4c0-0.9-0.1-1.7-0.4-2.3
			c-0.3-0.6-0.7-1-1.1-1.3c-0.5-0.3-1-0.5-1.7-0.6c-0.6-0.1-1.3-0.2-2-0.2H241v-2.7h11.5v22.1c0,1.4,0.1,2.6,0.3,3.7
			c0.2,1.1,0.6,2,1.1,2.8c0.5,0.8,1.2,1.3,2.1,1.7c0.9,0.4,1.9,0.6,3.2,0.6c1.4,0,2.6-0.3,3.6-0.8c1-0.5,1.8-1.2,2.5-2.1
			s1.1-2,1.5-3.3c0.3-1.3,0.5-2.7,0.5-4.2v-13.2c0-1-0.1-1.8-0.4-2.4c-0.3-0.6-0.7-1.1-1.1-1.4c-0.5-0.3-1-0.5-1.7-0.6
			s-1.3-0.2-2-0.2h-0.2v-2.7h11.4V321.7z"/>
		<path id="XMLID_458_" class="st6" d="M312.6,321.6c0,0.9,0.1,1.7,0.4,2.3c0.3,0.6,0.7,1,1.1,1.3c0.5,0.3,1,0.5,1.7,0.6
			c0.6,0.1,1.3,0.1,2,0.1h0.5v2.7h-10.9l-0.7-5.8h-0.3c-0.5,1-1,1.9-1.6,2.6c-0.6,0.8-1.3,1.4-2.1,2c-0.8,0.6-1.7,1-2.7,1.3
			c-1,0.3-2.1,0.5-3.4,0.5c-2.1,0-4-0.3-5.6-1c-1.6-0.7-3-1.8-4.1-3.2c-1.1-1.4-1.9-3.3-2.5-5.5c-0.6-2.2-0.8-4.9-0.8-7.9
			c0-3.1,0.3-5.8,0.8-8c0.6-2.3,1.4-4.1,2.5-5.6s2.5-2.5,4.1-3.2c1.6-0.7,3.5-1,5.6-1c1.2,0,2.3,0.1,3.3,0.4c1,0.3,1.9,0.7,2.7,1.2
			c0.8,0.5,1.5,1.1,2.1,1.8c0.6,0.7,1.2,1.4,1.6,2.3h0.4c-0.1-1-0.1-2-0.2-2.9c0-0.8-0.1-1.6-0.1-2.4c0-0.8-0.1-1.4-0.1-1.7V287
			c0-0.9-0.1-1.7-0.4-2.3c-0.3-0.6-0.7-1-1.1-1.3c-0.5-0.3-1-0.5-1.7-0.6c-0.6-0.1-1.3-0.1-2-0.1h-0.5V280h11.8V321.6z M297.9,325.2
			c1.7,0,3.1-0.3,4.2-0.8c1.1-0.6,2-1.4,2.7-2.5c0.7-1.1,1.2-2.5,1.4-4.3c0.3-1.7,0.4-3.7,0.4-6c0-2.2-0.1-4.2-0.4-5.9
			c-0.3-1.7-0.8-3.1-1.4-4.3c-0.7-1.2-1.6-2-2.7-2.6c-1.1-0.6-2.5-0.9-4.2-0.9c-1.4,0-2.6,0.3-3.6,0.9c-1,0.6-1.8,1.5-2.5,2.7
			c-0.6,1.2-1.1,2.6-1.4,4.3s-0.4,3.7-0.4,5.9c0,4.5,0.6,7.9,1.8,10.2C293,324,295,325.2,297.9,325.2z"/>
		<path id="XMLID_456_" class="st6" d="M355.7,294.3v2.7h-0.2c-0.6,0-1.2,0.1-1.6,0.2s-0.9,0.4-1.2,0.8c-0.4,0.4-0.7,0.9-1,1.5
			c-0.3,0.6-0.7,1.5-1,2.5l-9.7,26.9c-0.8,2.1-1.5,3.9-2.1,5.4c-0.7,1.6-1.4,2.9-2.1,4c-0.7,1.1-1.5,2-2.4,2.8
			c-0.9,0.7-1.9,1.3-3,1.8c-1.1,0.4-2.4,0.7-3.8,0.9c-1.4,0.2-3.1,0.3-5,0.3H322v-3c2.2,0,4-0.3,5.6-1c1.6-0.6,2.9-1.5,4.1-2.7
			c1.1-1.1,2.1-2.5,2.8-4s1.4-3.2,1.9-5l-11.9-28c-0.3-0.7-0.6-1.2-0.8-1.6c-0.3-0.4-0.6-0.8-0.9-1c-0.3-0.3-0.7-0.5-1.2-0.6
			s-1-0.2-1.6-0.2h-0.2v-2.7h15.4v2.7H335c-1.3,0-2.3,0.3-2.9,0.8c-0.6,0.5-1,1.3-1,2.3c0,0.4,0,0.7,0.1,1.1
			c0.1,0.4,0.2,0.8,0.4,1.3l4.7,11.4c0.3,0.7,0.6,1.5,0.9,2.4s0.6,1.7,0.9,2.6c0.3,0.8,0.5,1.6,0.8,2.4s0.4,1.4,0.5,1.9h0.2
			c0.2-0.9,0.5-2.1,1-3.4c0.4-1.3,0.9-2.8,1.4-4.3l4.3-12.5c0.2-0.5,0.3-1,0.4-1.5c0.1-0.5,0.1-0.9,0.1-1.3c0-1.1-0.3-1.9-1-2.4
			c-0.7-0.5-1.8-0.8-3.2-0.8h-0.2v-2.7H355.7z"/>
		<path id="XMLID_452_" class="st6" d="M391.3,295.5c0,0.5-0.1,0.9-0.2,1.4c-0.1,0.4-0.4,0.8-0.7,1.2c-0.3,0.3-0.8,0.6-1.4,0.8
			s-1.3,0.3-2.2,0.3c0-0.4-0.1-0.8-0.2-1.2s-0.3-0.6-0.5-0.8s-0.5-0.4-0.8-0.5c-0.3-0.1-0.6-0.2-0.9-0.2c-0.4,0-0.7,0.1-1.1,0.2
			c-0.4,0.1-0.7,0.3-1,0.5c0.4,0.5,0.8,1,1.2,1.6s0.7,1.3,1,2s0.5,1.4,0.7,2.2c0.2,0.8,0.3,1.5,0.3,2.3c0,1.6-0.3,3.1-0.8,4.5
			s-1.3,2.5-2.4,3.5s-2.4,1.8-4,2.3c-1.6,0.6-3.6,0.8-5.8,0.8c-0.2,0-0.5,0-0.9,0s-0.7,0-1.1,0s-0.7,0-1-0.1s-0.6-0.1-0.7-0.1
			c-0.3,0.1-0.5,0.3-0.8,0.5s-0.5,0.5-0.8,0.7c-0.2,0.3-0.4,0.6-0.5,0.9c-0.1,0.3-0.2,0.7-0.2,1.1c0,0.7,0.3,1.2,0.8,1.6
			c0.6,0.3,1.3,0.5,2.2,0.5h7.8c2.1,0,4,0.2,5.5,0.7c1.5,0.4,2.8,1.1,3.8,1.9c1,0.8,1.8,1.9,2.2,3.1c0.5,1.2,0.7,2.6,0.7,4.1
			c0,2-0.4,3.7-1.1,5.3c-0.8,1.6-1.9,2.9-3.4,3.9c-1.5,1.1-3.5,1.9-5.8,2.5c-2.3,0.6-5.1,0.9-8.2,0.9c-5,0-8.8-0.8-11.3-2.3
			s-3.7-3.7-3.7-6.6c0-2.3,0.7-4.1,2.2-5.3c1.5-1.2,3.6-1.9,6.4-2.2c-0.6-0.2-1.2-0.5-1.7-0.8c-0.6-0.3-1.1-0.7-1.5-1.2
			c-0.4-0.5-0.8-1-1.1-1.6c-0.3-0.6-0.4-1.3-0.4-2c0-0.7,0.1-1.4,0.4-2c0.3-0.6,0.7-1.2,1.2-1.7c0.5-0.6,1.1-1.1,1.8-1.6
			c0.7-0.5,1.5-1,2.3-1.5c-0.9-0.3-1.8-0.8-2.6-1.4c-0.8-0.6-1.5-1.3-2.1-2.1c-0.6-0.8-1-1.8-1.4-2.8c-0.3-1.1-0.5-2.2-0.5-3.5
			c0-3.8,1.1-6.7,3.3-8.7c2.2-2.1,5.6-3.1,10.1-3.1c1.5,0,2.9,0.2,4.2,0.6c1.3,0.4,2.4,0.9,3.4,1.4c0.4-0.4,0.7-0.8,1.2-1.2
			c0.4-0.4,0.9-0.8,1.5-1.2c0.5-0.4,1.1-0.6,1.8-0.9c0.7-0.2,1.4-0.3,2.2-0.3c0.8,0,1.4,0.1,2,0.3c0.6,0.2,1.1,0.5,1.4,0.8
			c0.4,0.3,0.7,0.7,0.9,1.2C391.2,294.5,391.3,295,391.3,295.5z M363.4,335c0,1.8,0.6,3.1,1.9,3.9c1.3,0.8,3.2,1.3,5.6,1.3
			c3.8,0,6.5-0.5,8.2-1.6c1.7-1.1,2.6-2.7,2.6-4.8c0-1.4-0.4-2.3-1.3-2.8c-0.9-0.5-2.1-0.8-3.9-0.8h-7.4c-0.6,0-1.3,0.1-2,0.2
			c-0.7,0.1-1.3,0.3-1.8,0.7c-0.6,0.4-1,0.8-1.4,1.5C363.6,333.1,363.4,333.9,363.4,335z M367.7,305.3c0,1.1,0.1,2.1,0.2,3
			s0.4,1.7,0.8,2.3s0.8,1.1,1.4,1.5c0.6,0.4,1.3,0.5,2.1,0.5c0.9,0,1.6-0.2,2.1-0.5c0.6-0.3,1-0.8,1.3-1.5c0.3-0.7,0.6-1.5,0.7-2.4
			s0.2-2,0.2-3.1c0-1.2-0.1-2.3-0.2-3.2c-0.1-1-0.4-1.8-0.7-2.5c-0.3-0.7-0.8-1.2-1.4-1.6s-1.3-0.6-2.1-0.6c-0.8,0-1.5,0.2-2.1,0.6
			c-0.6,0.4-1,0.9-1.4,1.7c-0.3,0.7-0.6,1.6-0.7,2.5C367.8,303.1,367.7,304.2,367.7,305.3z"/>
		<path id="XMLID_450_" class="st6" d="M414.3,328.6h-21.4v-3.4h0.2c0.7,0,1.4-0.1,2-0.2c0.6-0.1,1.1-0.3,1.6-0.6
			c0.4-0.3,0.8-0.8,1-1.4c0.2-0.6,0.4-1.4,0.4-2.4V302c0-0.9-0.1-1.7-0.3-2.3c-0.2-0.6-0.5-1-0.9-1.3c-0.4-0.3-0.9-0.5-1.5-0.6
			c-0.6-0.1-1.2-0.1-1.9-0.1h-0.2v-3.4h13l1.3,5h0.3c0.4-1,0.9-1.8,1.4-2.5c0.5-0.7,1.1-1.3,1.8-1.8c0.7-0.5,1.5-0.8,2.5-1.1
			c0.9-0.2,2.1-0.4,3.4-0.4c2.5,0,4.4,0.4,5.6,1.3c1.2,0.9,1.8,2.2,1.8,3.9c0,2-0.7,3.5-2.1,4.6c-1.4,1.1-3.4,1.6-6,1.6
			c0-0.9,0-1.6-0.1-2.3s-0.3-1.2-0.5-1.7c-0.2-0.4-0.6-0.8-1-1c-0.4-0.2-0.9-0.3-1.5-0.3c-0.8,0-1.4,0.2-1.9,0.6
			c-0.5,0.4-1,0.9-1.4,1.5c-0.4,0.6-0.7,1.3-0.9,2c-0.2,0.8-0.4,1.5-0.6,2.3c-0.1,0.8-0.2,1.5-0.3,2.2c0,0.7-0.1,1.3-0.1,1.8v11.1
			c0,0.9,0.1,1.7,0.3,2.3c0.2,0.6,0.5,1,0.9,1.3c0.4,0.3,0.9,0.5,1.4,0.6s1.1,0.1,1.8,0.1h2.1V328.6z"/>
		<path id="XMLID_447_" class="st6" d="M461.4,311.3c0,6-1.4,10.5-4.2,13.5c-2.8,3-7,4.4-12.5,4.4c-2.6,0-4.9-0.4-6.9-1.1
			c-2-0.7-3.8-1.9-5.2-3.3s-2.5-3.3-3.3-5.6c-0.8-2.3-1.1-4.9-1.1-7.9c0-6,1.4-10.5,4.2-13.5c2.8-2.9,7-4.4,12.5-4.4
			c2.6,0,4.9,0.4,6.9,1.1c2,0.7,3.8,1.8,5.2,3.3c1.4,1.5,2.5,3.3,3.3,5.6C461,305.7,461.4,308.3,461.4,311.3z M438.1,311.3
			c0,2.3,0.1,4.3,0.4,6c0.2,1.7,0.6,3.2,1.2,4.3c0.5,1.2,1.2,2,2.1,2.6c0.9,0.6,1.9,0.9,3.1,0.9s2.3-0.3,3.1-0.9
			c0.8-0.6,1.5-1.5,2.1-2.6c0.5-1.2,0.9-2.6,1.1-4.3s0.3-3.7,0.3-6c0-2.3-0.1-4.3-0.4-6c-0.2-1.7-0.6-3.2-1.2-4.3
			c-0.5-1.1-1.2-2-2.1-2.6c-0.9-0.6-1.9-0.9-3.1-0.9s-2.3,0.3-3.1,0.9c-0.9,0.6-1.5,1.4-2.1,2.6c-0.5,1.1-0.9,2.6-1.1,4.3
			S438.1,309,438.1,311.3z"/>
		<path id="XMLID_445_" class="st6" d="M492.7,328.6l-1.4-4.5H491c-0.6,1.1-1.3,2-2.1,2.7c-0.8,0.7-1.6,1.2-2.4,1.6
			c-0.9,0.4-1.8,0.6-2.7,0.7c-0.9,0.1-1.9,0.2-2.9,0.2c-3.3,0-5.9-1-7.7-3.1c-1.8-2.1-2.7-5.3-2.7-9.6v-14.4c0-0.9-0.1-1.7-0.3-2.3
			s-0.4-1-0.8-1.4c-0.4-0.3-0.8-0.6-1.4-0.7c-0.6-0.1-1.2-0.2-2-0.2H466v-3.4h14.2v20.5c0,1.4,0.1,2.6,0.2,3.7
			c0.2,1.1,0.4,2,0.8,2.8c0.4,0.8,0.9,1.4,1.5,1.8c0.6,0.4,1.4,0.6,2.3,0.6c1,0,1.9-0.2,2.6-0.7c0.7-0.4,1.3-1.1,1.8-1.9
			c0.5-0.8,0.8-1.9,1-3.1c0.2-1.2,0.3-2.5,0.3-4.1v-12.3c0-0.9-0.1-1.7-0.4-2.2c-0.3-0.5-0.6-1-1-1.2s-0.9-0.5-1.5-0.5
			c-0.6-0.1-1.2-0.1-1.8-0.1h-0.2v-3.4h14.5v26.9c0,0.9,0.1,1.7,0.3,2.2c0.2,0.5,0.5,0.9,0.9,1.2c0.4,0.3,0.8,0.4,1.3,0.5
			c0.5,0.1,1.1,0.1,1.7,0.1h0.5v3.4H492.7z"/>
		<path id="XMLID_442_" class="st6" d="M508.7,340.6c0.5,0,1,0,1.5-0.1c0.5-0.1,1-0.3,1.5-0.6c0.4-0.3,0.8-0.7,1.1-1.3
			c0.3-0.5,0.5-1.3,0.5-2.2v-34.3c0-1-0.1-1.8-0.3-2.3c-0.2-0.6-0.5-1-0.9-1.3c-0.4-0.3-0.8-0.5-1.4-0.6c-0.5-0.1-1.1-0.2-1.7-0.2
			h-0.4v-3.4H521l1.2,5h0.3c0.5-0.8,1-1.6,1.6-2.3c0.6-0.7,1.3-1.3,2.1-1.8c0.8-0.5,1.7-0.9,2.7-1.2c1-0.3,2.1-0.4,3.3-0.4
			c2.1,0,4,0.3,5.6,1c1.6,0.7,3,1.8,4.1,3.3c1.1,1.5,1.9,3.3,2.5,5.6c0.6,2.3,0.9,4.9,0.9,8c0,3.1-0.3,5.8-0.8,8
			c-0.6,2.2-1.4,4.1-2.5,5.6c-1.1,1.5-2.4,2.5-4,3.2c-1.6,0.7-3.4,1-5.5,1c-2.4,0-4.4-0.5-5.9-1.4s-2.7-2.2-3.7-3.7h-0.4
			c0.1,1,0.2,1.9,0.3,2.9c0.1,0.8,0.1,1.6,0.2,2.5s0.1,1.7,0.1,2.3v4.4c0,0.9,0.2,1.6,0.5,2.2c0.3,0.5,0.7,1,1.1,1.3
			c0.4,0.3,0.9,0.5,1.5,0.6c0.5,0.1,1,0.1,1.5,0.1h1.4v3.4h-21v-3.4H508.7z M529.5,324.7c2.1,0,3.7-1.1,4.6-3.2
			c0.9-2.2,1.4-5.4,1.4-9.8c0-4.3-0.5-7.5-1.4-9.8s-2.4-3.4-4.6-3.4c-1.3,0-2.3,0.3-3.2,0.9c-0.9,0.6-1.5,1.4-2,2.5
			c-0.5,1.1-0.9,2.5-1.1,4.1c-0.2,1.6-0.3,3.5-0.3,5.6c0,2.2,0.1,4.1,0.3,5.8c0.2,1.6,0.6,3,1.1,4.1c0.5,1.1,1.2,1.9,2,2.4
			C527.2,324.4,528.2,324.7,529.5,324.7z"/>
	</g>
</g>
</svg>
