<?xml version="1.0" encoding="utf-8"?>
<!-- Generator: Adobe Illustrator 25.2.3, SVG Export Plug-In . SVG Version: 6.00 Build 0)  -->
<svg version="1.1" id="Capa_1" xmlns="http://www.w3.org/2000/svg" xmlns:xlink="http://www.w3.org/1999/xlink" x="0px" y="0px"
	 viewBox="0 0 84.1 84.1" style="enable-background:new 0 0 84.1 84.1;" xml:space="preserve">
<style type="text/css">
	.st0{fill:#C9B8B7;}
	.st1{fill:#7AC3A9;}
	.st2{fill:#ED7224;}
	.st3{fill:#EAA62B;}
</style>
<g>
	<g id="XMLID_27_">
		<path id="XMLID_225_" class="st0" d="M29.3,78.4l-2.9-16.7L9.6,61.6l8.3-14.2L5,36.7l16-5.8l-2.9-16.7L33.9,20l8.4-14.4l8.3,14.5
			l15.6-5.7l-2.9,16.4L79,36.6L66.3,47.3l8.4,14.5l-16.8-0.1L55,78.3L42.1,67.6L29.3,78.4z M10.1,61.3l16.5,0.1l2.9,16.4l12.6-10.6
			l12.7,10.6l2.9-16.3l16.5,0.1L66,47.3l12.5-10.5L63,31.1l2.8-16.2l-15.4,5.6L42.2,6.3l-8.3,14.2l-15.6-5.7l2.9,16.4L5.5,36.9
			l12.7,10.6L10.1,61.3z M54.5,77.1L42.5,67l6.6-5.5h8.2L54.5,77.1z M42.9,67l11.4,9.5l2.6-14.7h-7.8L42.9,67z M29.8,77.1l-2.7-15.6
			h8.1l6.7,5.6L29.8,77.1z M27.4,61.7L30,76.5L41.3,67L35,61.7H27.4z M42.1,66.7l-6.3-5.3l12.6,0.1L42.1,66.7z M36.6,61.7l5.5,4.6
			l5.4-4.6H36.6z M73.5,61.2l-15.7-0.1l1.4-8.1l6.5-5.4L73.5,61.2z M58.1,60.8L73,60.9L65.6,48l-6.1,5.1L58.1,60.8z M57.3,61.1h-7.8
			l9.1-7.7L57.3,61.1z M50.3,60.8h6.8l1.2-6.7L50.3,60.8z M48.9,61.1L48.9,61.1L35.3,61l-9.7-8.1l-2.3-13.3l6.6-11.2l12.5-4.5l0,0
			l12.3,4.5l6.5,11.2l-2.3,13.1L48.9,61.1z M35.4,60.7l13.4,0.1l9.7-8.2l2.3-12.9l-6.4-11.1l-12.1-4.5L30,28.6l-6.5,11l2.3,13
			L35.4,60.7z M34.7,61h-7.6l-1.3-7.4L34.7,61z M27.3,60.7h6.6l-7.7-6.4L27.3,60.7z M26.6,61l-15.7-0.1l7.8-13.3l6.6,5.5L26.6,61z
			 M11.4,60.6l14.9,0.1L25,53.3l-6.2-5.2L11.4,60.6z M25.1,52.5l-6.3-5.2l4.1-7L25.1,52.5z M19.2,47.2l5.5,4.6l-1.9-10.7L19.2,47.2z
			 M59.3,52.3l2.1-12.1l4,7L59.3,52.3z M61.6,41.1l-1.9,10.5l5.3-4.5L61.6,41.1z M18.5,47L6.4,36.9l15-5.4l1.4,8.1L18.5,47z M7,37
			l11.4,9.5l4.1-7l-1.3-7.6L7,37z M65.8,46.9l-4.2-7.3l1.4-8.1l14.7,5.4L65.8,46.9z M61.8,39.5l4,6.9l11.3-9.5l-13.9-5.1L61.8,39.5z
			 M61.2,39l-6-10.4l7.3,2.7L61.2,39z M55.9,29.2l5.2,9l1.2-6.6L55.9,29.2z M23.2,39l-1.3-7.7l7.4-2.7L23.2,39z M22.2,31.5l1.2,6.7
			l5.2-9L22.2,31.5z M62.6,30.9l-7.7-2.8l-4.2-7.2l14.6-5.3L62.6,30.9z M55.1,27.9l7.3,2.7L65,16l-13.8,5L55.1,27.9z M21.8,30.9
			l-2.7-15.6l14.8,5.5l-4.3,7.3L21.8,30.9z M19.4,15.8L22,30.6l7.4-2.7l4-6.9L19.4,15.8z M54.3,27.9l-11.4-4.2l7.4-2.7L54.3,27.9z
			 M43.8,23.7l9.9,3.6l-3.4-6L43.8,23.7z M30.2,27.9l4.1-6.9l7.5,2.8L30.2,27.9z M34.4,21.3l-3.5,6l10-3.6L34.4,21.3z M42.3,23.5
			l-7.9-2.9l7.9-13.5l7.8,13.5L42.3,23.5z M34.9,20.4l7.4,2.7l7.4-2.7L42.3,7.6L34.9,20.4z"/>
	</g>
	<g id="XMLID_6_">
		<circle id="XMLID_8_" class="st1" cx="29.7" cy="77.5" r="3.9"/>
		<circle id="XMLID_10_" class="st2" cx="54.7" cy="77.5" r="3.9"/>
		<circle id="XMLID_12_" class="st3" cx="73.9" cy="61.4" r="3.9"/>
		<circle id="XMLID_13_" class="st1" cx="78.1" cy="36.9" r="3.9"/>
		<circle id="XMLID_14_" class="st2" cx="65.6" cy="15.2" r="3.9"/>
		<circle id="XMLID_15_" class="st3" cx="42.4" cy="6.7" r="3.9"/>
		<circle id="XMLID_16_" class="st1" cx="18.8" cy="15" r="3.9"/>
		<circle id="XMLID_17_" class="st2" cx="6" cy="36.9" r="3.9"/>
		<circle id="XMLID_18_" class="st3" cx="10.5" cy="61.4" r="3.9"/>
	</g>
</g>
</svg>
