<?xml version="1.0" encoding="utf-8"?>
<!-- Generator: Adobe Illustrator 25.2.3, SVG Export Plug-In . SVG Version: 6.00 Build 0)  -->
<svg version="1.1" id="Capa_1" xmlns="http://www.w3.org/2000/svg" xmlns:xlink="http://www.w3.org/1999/xlink" x="0px" y="0px"
	 viewBox="0 0 112 112" style="enable-background:new 0 0 112 112;" xml:space="preserve">
<style type="text/css">
	.st0{fill:#49392B;}
</style>
<g>
	<path class="st0" d="M86.5,42.1h-61c-2.9,0-5.2-2.3-5.2-5.2v0c0-2.9,2.3-5.2,5.2-5.2h61c2.9,0,5.2,2.3,5.2,5.2v0
		C91.7,39.7,89.4,42.1,86.5,42.1z"/>
	<path class="st0" d="M86.5,61.2h-61c-2.9,0-5.2-2.3-5.2-5.2v0c0-2.9,2.3-5.2,5.2-5.2h61c2.9,0,5.2,2.3,5.2,5.2v0
		C91.7,58.9,89.4,61.2,86.5,61.2z"/>
	<path class="st0" d="M86.5,80.4h-61c-2.9,0-5.2-2.3-5.2-5.2v0c0-2.9,2.3-5.2,5.2-5.2h61c2.9,0,5.2,2.3,5.2,5.2v0
		C91.7,78,89.4,80.4,86.5,80.4z"/>
</g>
</svg>
