<svg xmlns="http://www.w3.org/2000/svg" xmlns:xlink="http://www.w3.org/1999/xlink" xml:space="preserve" version="1.1" style="shape-rendering:geometricPrecision;text-rendering:geometricPrecision;image-rendering:optimizeQuality;" viewBox="0 0 846.66 1058.325" x="0px" y="0px" fill-rule="evenodd" clip-rule="evenodd"><defs><style type="text/css">
   
    .fil0 {fill:black}
   
  </style></defs><g><path class="fil0" d="M240.46 246.72c-26.01,-26 -74.32,-19.87 -107.9,13.71 -28,28.01 -36.91,66.25 -24.02,93.26l-84.42 84.42c-14.95,14.95 7.67,37.56 22.62,22.61l83.67 -83.67c27.12,15.15 67.25,6.65 96.34,-22.43 33.58,-33.58 39.71,-81.89 13.71,-107.9zm-124.78 -83.63l116.77 0 0 42.34 -37.22 0 0 12.82c-14.93,0.73 -29.06,4.88 -42.34,11.82l0 -24.64 -37.21 0 0 -42.34zm278.97 -46.59c22.29,0 40.36,18.07 40.36,40.36 0,22.3 -18.07,40.37 -40.36,40.37 -22.3,0 -40.37,-18.07 -40.37,-40.37 0,-22.29 18.07,-40.36 40.37,-40.36zm-285.82 571.31l718.63 0 0 42.34 -718.63 0 0 -42.34zm154.22 -429.59l478.01 0 0 -52.79 -37.21 0 0 -42.34 116.77 0 0 42.34 -37.22 0 0 469.88 -42.34 0 0 -143.35 -545.83 0 0 143.35 -42.34 0 0 -278.74c14.37,1.32 28.94,-1.25 42.34,-6.47l0 22.03 65.78 0 0 -34.07 -43.03 0c36.73,-24.98 63.86,-76.42 45.07,-119.84zm40.3 42.34l0 35.16 50.63 0 0 -35.16 -50.63 0zm0 77.5l0 34.07 50.63 0 0 -34.07 -50.63 0zm0 76.41l0 35.15 50.63 0 0 -35.15 -50.63 0zm-42.34 35.15l0 -35.15 -65.78 0 0 35.15 65.78 0zm135.31 -189.06l0 35.16 50.63 0 0 -35.16 -50.63 0zm0 77.5l0 34.07 50.63 0 0 -34.07 -50.63 0zm0 76.41l0 35.15 50.63 0 0 -35.15 -50.63 0zm278.96 -153.91l0 35.16 65.78 0 0 -35.16 -65.78 0zm0 77.5l0 34.07 65.78 0 0 -34.07 -65.78 0zm0 76.41l0 35.15 65.78 0 0 -35.15 -65.78 0zm-42.34 35.15l0 -35.15 -50.68 0 0 35.15 50.68 0zm0 -77.49l0 -34.07 -50.68 0 0 34.07 50.68 0zm0 -76.41l0 -35.16 -50.68 0 0 35.16 50.68 0zm-93.02 153.9l0 -35.15 -50.63 0 0 35.15 50.63 0zm0 -77.49l0 -34.07 -50.63 0 0 34.07 50.63 0zm0 -76.41l0 -35.16 -50.63 0 0 35.16 50.63 0zm-320.71 -67.75c-16.27,-16.27 -47.17,-11.75 -69.02,10.1 -21.84,21.85 -26.36,52.74 -10.09,69.01 16.27,16.27 47.16,11.75 69.01,-10.09 21.85,-21.85 26.37,-52.75 10.1,-69.02z"/></g><text x="0" y="861.66" fill="#000000" font-size="5px" font-weight="bold" font-family="'Helvetica Neue', Helvetica, Arial-Unicode, Arial, Sans-serif">Created by angelina</text><text x="0" y="866.66" fill="#000000" font-size="5px" font-weight="bold" font-family="'Helvetica Neue', Helvetica, Arial-Unicode, Arial, Sans-serif">from the Noun Project</text></svg>