<?xml version="1.0" encoding="utf-8"?>
<!-- Generator: Adobe Illustrator 19.0.0, SVG Export Plug-In . SVG Version: 6.00 Build 0)  -->
<svg version="1.1" id="Capa_1" xmlns="http://www.w3.org/2000/svg" xmlns:xlink="http://www.w3.org/1999/xlink" x="0px" y="0px"
	 viewBox="-600 376 50 50" style="enable-background:new -600 376 50 50;" xml:space="preserve">
<style type="text/css">
	.st0{fill:#79C3AA;}
</style>
<title>settings</title>
<g>
	<path class="st0" d="M-552.7,399.5h-29.4c-0.8-2.6-3.4-4.2-6-3.6c-1.9,0.4-3.4,1.8-3.9,3.6h-5.2c-0.8,0-1.5,0.7-1.5,1.5
		s0.7,1.5,1.5,1.5h5.2c0.3,1.2,1.1,2.2,2.1,2.9c0.9,0.6,1.8,0.9,2.9,0.9c0.3,0,0.7,0,1-0.1c1.9-0.4,3.4-1.8,3.9-3.6h29.4
		c0.8,0,1.5-0.7,1.5-1.5S-551.9,399.5-552.7,399.5z M-584.8,401c0,1.2-1,2.2-2.2,2.2s-2.2-1-2.2-2.2s1-2.2,2.2-2.2
		S-584.8,399.8-584.8,401z"/>
	<path class="st0" d="M-552.7,414.4h-5.2c-0.3-1.2-1.1-2.2-2.1-2.9c-1.2-0.8-2.5-1-3.9-0.8c-1.9,0.4-3.4,1.8-3.9,3.6h-29.4
		c-0.8,0-1.5,0.7-1.5,1.5c0,0.8,0.7,1.5,1.5,1.5h29.4c0.3,1.2,1.1,2.2,2.1,2.9c0.9,0.6,1.8,0.9,2.9,0.9c0.3,0,0.7,0,1-0.1
		c1.9-0.4,3.4-1.8,3.9-3.6h5.2c0.8,0,1.5-0.7,1.5-1.5C-551.2,415-551.9,414.4-552.7,414.4z M-560.7,415.9c0,1.2-1,2.2-2.2,2.2
		c-1.2,0-2.2-1-2.2-2.2s1-2.2,2.2-2.2C-561.7,413.6-560.7,414.6-560.7,415.9z"/>
	<path class="st0" d="M-597.3,387.6h29.4c0.3,1.2,1.1,2.2,2.1,2.9c0.9,0.6,1.8,0.9,2.9,0.9c0.3,0,0.7,0,1-0.1
		c1.9-0.4,3.4-1.8,3.9-3.6h5.2c0.8,0,1.5-0.7,1.5-1.5c0-0.8-0.7-1.5-1.5-1.5h-5.2c-0.3-1.2-1.1-2.2-2.1-2.9c-1.2-0.8-2.5-1-3.9-0.8
		c-1.9,0.4-3.4,1.8-3.9,3.6h-29.4c-0.8,0-1.5,0.7-1.5,1.5C-598.8,387-598.1,387.6-597.3,387.6z M-565.2,386.1c0-1.2,1-2.2,2.2-2.2
		c1.2,0,2.2,1,2.2,2.2c0,1.2-1,2.2-2.2,2.2C-564.2,388.4-565.2,387.4-565.2,386.1z"/>
</g>
</svg>
