<?xml version="1.0" encoding="utf-8"?>
<!-- Generator: Adobe Illustrator 25.2.3, SVG Export Plug-In . SVG Version: 6.00 Build 0)  -->
<svg version="1.1" id="Capa_1" xmlns="http://www.w3.org/2000/svg" xmlns:xlink="http://www.w3.org/1999/xlink" x="0px" y="0px"
	 viewBox="0 0 112 112" style="enable-background:new 0 0 112 112;" xml:space="preserve">
<style type="text/css">
	.st0{fill:#A90338;}
</style>
<g>
	<path class="st0" d="M66.6,49.6c0-0.9-0.7-1.8-1.6-1.8l-0.1,0c-0.9,0-1.7,0.7-1.8,1.6l-1.4,21.5c0,0.5,0.1,0.9,0.4,1.3
		c0.3,0.3,0.7,0.6,1.2,0.6h0.1c1,0,1.7-0.7,1.7-1.6L66.6,49.6z"/>
	<path class="st0" d="M57.7,49.5c0-1-0.8-1.7-1.7-1.7s-1.7,0.8-1.7,1.7v21.4c0,1,0.8,1.7,1.7,1.7s1.7-0.8,1.7-1.7V49.5z"/>
	<path class="st0" d="M48.1,48.2c-0.3-0.3-0.8-0.4-1.2-0.4c-1,0-1.7,0.9-1.7,1.8L46.6,71c0.1,0.9,0.9,1.6,1.7,1.6h0.1
		c0.4,0,0.9-0.2,1.2-0.6s0.5-0.8,0.4-1.3l-1.4-21.4C48.7,49,48.5,48.5,48.1,48.2z"/>
	<path class="st0" d="M81.1,36.4H65.3v-6.2c0-1.2-1-2.2-2.2-2.2H48.9c-1.2,0-2.2,1-2.2,2.2v6.2H30.9c-1.2,0-2.2,1-2.2,2.2
		c0,1.2,1,2.2,2.2,2.2H34l2.8,37.6c0.2,3.1,2.9,5.6,6.1,5.6H69c3.2,0,5.8-2.5,6.1-5.6L78,40.9h3.1c1.2,0,2.2-1,2.2-2.2
		C83.4,37.4,82.3,36.4,81.1,36.4z M51.1,32.4h9.7v4h-9.7V32.4z M70.6,78.1c-0.1,0.8-0.8,1.5-1.6,1.5H42.9c-0.8,0-1.5-0.6-1.6-1.5
		l-2.8-37.2h35L70.6,78.1z"/>
</g>
</svg>
